<?xml version="1.0" standalone="no"?>
<!DOCTYPE svg PUBLIC "-//W3C//DTD SVG 1.1//EN" "http://www.w3.org/Graphics/SVG/1.1/DTD/svg11.dtd" >
<svg>
<metadata>
Created by FontForge 20120731 at Sun Feb 12 10:58:47 2023
 By ffonts
Copyright (c) 2018 by Suandana I Pande Made. All rights reserved.
</metadata>
<defs>
<font id="AllisonTessa-ExtraexpandedExtra" horiz-adv-x="200" >
  <font-face 
    font-family="Allison Tessa"
    font-weight="1000"
    font-stretch="extra-expanded"
    units-per-em="1000"
    panose-1="0 0 0 0 0 0 0 0 0 0"
    ascent="750"
    descent="-250"
    x-height="397"
    cap-height="1485"
    bbox="-453.941 -1382.38 3264 2422.67"
    underline-thickness="50"
    underline-position="-50"
    unicode-range="U+000D-007A"
  />
<missing-glyph 
 />
    <glyph glyph-name=".notdef" 
 />
    <glyph glyph-name="NULL" horiz-adv-x="0" 
 />
    <glyph glyph-name="NULL" horiz-adv-x="0" 
 />
    <glyph glyph-name="nonmarkingreturn" unicode="&#xd;" 
 />
    <glyph glyph-name="space" unicode=" " 
 />
    <glyph glyph-name="e" unicode="e" horiz-adv-x="332" 
d="M470 275q-11 -7 -23 -13t-18 -8q-34 -14 -62.5 -25t-55.5 -21.5t-55.5 -21.5t-62.5 -23q-14 -5 -26 -7t-25 -3q-35 -2 -48 15t5 50q7 20 18.5 40t29 41.5t43.5 46.5t62 56q34 26 61.5 40t50.5 16.5t43.5 -6t41.5 -26.5q4 -9 -5.5 -22.5t-27 -27.5t-38.5 -27.5t-39 -20.5
q-24 -10 -47.5 -17.5t-47.5 -15.5q-21 -7 -38 -20t-28.5 -26.5t-15.5 -24.5t2 -15q8 -5 30.5 0t52.5 14.5t65.5 22t70.5 24t66.5 20t53.5 10.5q4 -1 2 -3.5t-7.5 -6t-13.5 -7.5t-14 -8zM264 351q-11 -11 -9 -11.5t10 2.5q10 5 27.5 10t26.5 10q22 11 32.5 23.5t-0.5 13.5
q-7 0 -32.5 -10.5t-54.5 -37.5z" />
    <glyph glyph-name="f" unicode="f" horiz-adv-x="336" 
d="M256 310q30 -11 67 -13.5t83 5.5q18 4 13.5 -2.5t-21 -17.5t-40.5 -23.5t-43 -19.5q-14 -5 -32 -8t-32 -5q-10 -1 -22 -3.5t-13 -7.5q-4 -22 -9.5 -35.5t-15.5 -33.5l-26.5 -53t-37.5 -73.5t-38 -73t-28 -52.5q-29 -52 -56 -103t-54 -103q-11 -22 -21.5 -43.5
t-23.5 -42.5q-3 -4 -8 -11.5t-11.5 -14.5t-13.5 -11t-13 -1q-4 2 -5.5 17t0.5 23q2 11 7.5 22.5t11.5 23.5q38 85 76.5 170t75.5 170q6 13 16.5 38t22.5 52t23.5 52t18.5 37q15 26 24.5 42.5t10.5 20.5q0 2 -1.5 6t-12.5 4q-14 0 -20.5 7t11.5 32q12 17 18 21.5t17 6.5
q3 1 7 1h6q5 0 9 1.5t9 8t12.5 19t19.5 33.5q35 64 64.5 116t58 101.5t58.5 101.5t67 116q51 87 105 171.5t108 170.5q3 8 8 13q14 11 29 25.5t26 16.5q11 3 16.5 -0.5t8 -9.5t2 -14.5t-1.5 -16.5q-4 -23 -9 -46t-16 -46q-60 -148 -139.5 -293.5t-195.5 -285.5
q-15 -17 -34.5 -36.5l-39 -39t-37 -36.5t-27.5 -28q-2 -3 -6.5 -8.5t-7.5 -11.5t-3.5 -12t5.5 -10zM322 460q-8 -13 -6.5 -13t9.5 9t20 24.5t25.5 32t26 33t20.5 26.5q38 51 75.5 107.5t71 112.5t60.5 109.5t45 97.5q5 12 12 29.5l14 35t12 33t6.5 24t-2 7t-14.5 -17.5
q-59 -81 -108 -163t-93.5 -163.5t-86.5 -162.5t-87 -161z" />
    <glyph glyph-name="g" unicode="g" horiz-adv-x="455" 
d="M270 269q-22 -18 -35.5 -29.5t-26.5 -21.5q-25 -18 -48 -25.5t-40 3.5t-16 32t18 42q28 37 58 73.5t65 65.5q18 14 31 25.5t22.5 23t16.5 24.5t14 29q4 6 3.5 12t-3 11t-4.5 10.5t0 11.5q3 6 10 13.5t16 13t19 7t20 -4.5q3 -2 9 -11t4 -15q-3 -26 -7.5 -52t-14.5 -52
q-14 -38 -21 -60t-13.5 -41t-14.5 -41.5t-22 -59.5q-7 -15 -12 -31t-13 -39q23 9 42.5 16t38.5 15q33 14 51.5 21t29 11t17.5 6t17.5 6t29 10.5t52.5 20.5q14 6 29 9t30 8q12 3 9.5 0t-13.5 -10t-29 -17t-37.5 -19.5t-37.5 -18t-29 -13.5q-33 -15 -50 -23.5t-26.5 -13.5
t-15.5 -8l-16 -8t-27.5 -12.5t-50.5 -22.5q-29 -12 -43 -30t-25 -41q-34 -72 -68.5 -144t-70.5 -144q-11 -23 -26 -48t-44 -34q-15 -5 -23 -0.5t-12.5 12.5t-7.5 18t-7 18q-16 28 -16.5 62.5t7.5 72.5q13 62 51 116t110 92q74 38 107 87q19 29 27 50.5t12 41.5zM188 74
q-59 -25 -100.5 -63.5t-62 -81t-19 -83t30.5 -70.5q26 36 45 72.5t35.5 73.5t33 75t37.5 77zM254 359q-29 -23 -53.5 -49.5t-26.5 -63.5q4 -4 13 4.5t20 22.5t22 30.5t18.5 30t10 21.5t-3.5 4z" />
    <glyph glyph-name="h" unicode="h" horiz-adv-x="374" 
d="M55 87q-14 9 -9 23t13 29q66 122 130.5 243t132.5 243q18 32 18 45t-5.5 19t-10.5 10t2 19q10 11 17 20.5t16 17.5q54 47 90 100t70 108q39 63 77.5 126t79 125t84 123.5t92.5 121.5q6 8 13 16t15 13q22 18 28.5 15t4.5 -15.5t-9 -28.5t-12 -25q-38 -67 -73 -133.5
t-80 -131.5q-60 -88 -126.5 -173.5t-131.5 -172.5q-4 -5 -7.5 -10t-6.5 -10q-69 -119 -136 -237.5t-131 -239.5q19 18 46 45.5t56 57t58.5 57.5t55.5 47t45.5 26t28.5 -6q9 -11 2 -41.5t-22 -70t-34 -83.5t-34 -81t-22 -63t2 -30q5 -2 18.5 5t31 19.5t36.5 27.5t35 28.5
t27 22.5t13 10q7 2 0 -9.5t-23 -31t-39 -42.5t-47 -43t-47 -33.5t-39 -13.5q-26 1 -31.5 20.5t1.5 42.5q14 45 29.5 90t31.5 90q8 21 17.5 43.5t21.5 51.5q6 16 -7.5 8t-34 -27t-43 -41t-34.5 -34l-40 -40t-53.5 -58.5t-50.5 -68t-29 -68.5q-8 -11 -16 -22.5t-16.5 -20
t-18.5 -11t-20 6.5zM794 1322q-21 -29 -45 -61.5t-46.5 -65.5t-41 -64.5t-28.5 -57.5q10 13 27.5 38t37 54t38.5 58.5t33.5 53t22 36.5t2.5 9z" />
    <glyph glyph-name="i" unicode="i" horiz-adv-x="152" 
d="M166 156q9 2 25.5 15.5t35.5 32t38.5 38.5t35 35.5t24 22.5t6.5 -1q-5 -21 -26.5 -51t-49 -59.5t-55.5 -52t-46 -28.5q-23 -7 -37 -2t-15 25q0 23 0.5 46.5t8.5 47.5q20 59 40.5 105.5t38.5 99.5q7 17 18.5 24.5t24.5 7.5q5 0 12.5 -0.5t13.5 -2.5t9.5 -5t2.5 -7
q-5 -16 -21 -42t-39 -68q-23 -40 -37 -73.5t-19 -59.5q-2 -8 -2.5 -17t0 -16.5t4 -12t9.5 -2.5zM328 534q3 -5 -5 -14t-21 -17.5t-28.5 -14t-27.5 -1.5q-4 11 -9.5 23t0.5 23t24 23t30 14q11 2 22 -4.5t15 -31.5z" />
    <glyph glyph-name="j" unicode="j" horiz-adv-x="309" 
d="M-321 -506q-27 -18 -35 1.5t0 60t29 93t53 100.5q48 72 112 130t135 113q31 26 55 53.5t39 60.5q26 57 51.5 113.5t51.5 114.5q11 27 15 41.5t5 24.5t1 19t2 25q4 19 9 30t9.5 17t8.5 8.5t7 4.5q17 12 28 4.5t9 -26.5q-4 -20 -9.5 -39.5t-13.5 -39.5q-23 -57 -48 -114
t-49 -114q-7 -16 -13.5 -33t-17.5 -41q29 16 54.5 31t48.5 29l46 28t47 28q21 12 46.5 26t51 27t47.5 21.5t36 9.5q9 1 -2.5 -8.5t-31.5 -22.5t-42.5 -26.5t-35.5 -21.5q-38 -24 -64 -40t-49 -30.5t-48 -30.5t-61 -39q-39 -25 -69.5 -53.5t-53.5 -69.5
q-53 -93 -110.5 -185.5t-136.5 -178.5q-22 -23 -46 -48t-61 -53zM-27 -58q-61 -43 -112.5 -92t-89.5 -107q-17 -26 -29 -53t-23 -53q-2 -5 -5 -16t-4 -20.5t1.5 -14t11.5 1.5q46 44 81.5 88t64.5 88.5t54 89t50 88.5zM309 580q3 -5 -5.5 -14.5t-22 -17.5t-29 -12t-27.5 1
q-1 12 -6 24t2 23t25 22.5t31 12.5q9 1 19.5 -6.5t12.5 -32.5z" />
    <glyph glyph-name="k" unicode="k" horiz-adv-x="271" 
d="M251 381q23 13 38.5 22.5t29.5 14.5q6 2 13.5 5t14.5 5t12 2t6 -4q3 -6 -5 -20t-16 -23q-17 -20 -37 -38t-39 -38q-23 -26 -34.5 -41t-11 -24t13 -15t36.5 -13q5 -2 8.5 -3t7.5 -3q5 -2 0 -13q-18 -21 -34.5 -27.5t-32 -6.5t-30.5 2.5t-30 1.5q-23 -23 -33.5 -49.5
t-20 -49.5t-25.5 -40.5t-50 -21.5q-20 2 -20 15t11 32q13 23 26.5 46.5t26.5 46.5q6 10 12.5 20t8.5 19q11 40 29.5 80.5t41.5 80t48.5 78.5t49.5 78q50 79 94 159t85 160t81 160t82 160q31 58 68 115.5t74 115.5q6 9 20 20t20 12q14 2 21 -8t5 -19q-15 -51 -30.5 -102
t-38.5 -103q-72 -161 -171 -315.5t-221 -306.5q-29 -38 -57.5 -77t-46.5 -90zM477 781q41 59 80 119t73 120.5t62 121t47 122.5q-41 -59 -75.5 -119t-65.5 -121t-60.5 -121.5t-60.5 -121.5z" />
    <glyph glyph-name="l" unicode="l" horiz-adv-x="273" 
d="M439 300q12 7 9 2t-12 -15.5t-20.5 -22l-17.5 -17.5q-37 -37 -61.5 -62.5t-47 -48.5t-47.5 -48l-62 -62q-12 -12 -25 -24t-26.5 -21.5t-27.5 -14t-28 -0.5q-12 4 -17 12.5t-4.5 20t4 25t7.5 25.5q28 91 58.5 181.5t61.5 183.5q-3 1 -11.5 1t-16 1t-11 4.5t4.5 12.5
q11 11 20.5 23.5t20.5 20.5q43 32 72 68t53 78q109 196 231 390q26 41 59.5 80t66.5 77q10 12 24 22.5t27 18.5q35 19 55.5 9t10.5 -42q-7 -24 -19.5 -49t-27.5 -50q-60 -99 -133.5 -191.5t-152.5 -184.5q-38 -47 -78.5 -93t-77.5 -94q-20 -25 -34 -52l-28 -54
q-42 -79 -68.5 -156.5t-45.5 -154.5q-3 -9 -4.5 -22t-1.5 -25t2 -19.5t8 -4.5q56 44 93.5 80.5t70 69t66 62t81.5 60.5zM419 730q34 29 73 75.5t77 97.5t71.5 102t56 89.5t31.5 59.5t-2 13q-59 -51 -101 -105t-76.5 -109.5t-65 -111.5t-64.5 -111z" />
    <glyph glyph-name="m" unicode="m" horiz-adv-x="491" 
d="M369 283q14 19 28 37.5t30 37.5q19 23 35.5 25.5t24.5 -15.5q5 -13 7 -27.5t9 -26.5q6 -20 14 -34.5t15 -24.5t11 -16t2 -8q-20 -20 -48.5 -7t-63.5 64q-2 4 -8 -0.5t-14 -12.5t-16.5 -17t-13.5 -13q-91 -75 -96 8q-1 9 -1 19v27q-2 3 -9.5 -6.5t-20.5 -27t-30.5 -39
t-37.5 -41.5t-43 -36t-47 -21q-8 -1 -11 3t-3 10.5t2 14t4 13.5q20 55 41.5 109.5t45.5 109.5q1 4 6 9.5t11 10t13 8t12 2.5q10 0 15.5 -3.5t8 -8.5t2.5 -10.5t-1 -9.5q-8 -18 -14.5 -27t-13 -19.5t-15.5 -27t-22 -48.5q-2 -4 -5 -12t-4.5 -14.5t0 -9.5t9.5 4t20 22.5
t21 29.5q14 20 26.5 39.5t27.5 39.5q20 28 40 31t28 -20q2 -9 3 -19.5t3 -20.5q2 -13 3.5 -25.5t3.5 -25.5q1 -11 5.5 -9.5t10.5 9.5z" />
    <glyph glyph-name="n" unicode="n" horiz-adv-x="239" 
d="M245 122q-5 -2 -11.5 -2.5t-12.5 2.5t-10 11t-4 23q1 13 8 33.5t19 47.5q17 37 23 53.5t2 27.5q-6 8 -14.5 8t-18 -6t-19.5 -17t-18 -24q-12 -20 -21 -43.5t-16 -44t-13 -34t-13 -13.5q-21 1 -27 12.5t-3.5 28.5t10.5 37.5t15 39.5q13 29 22 53t18.5 43t23 33t35.5 23
q10 3 13 -0.5t2 -11.5t-6 -19.5t-12 -26.5q-2 -5 5 0t18 13.5t24.5 17t25.5 8.5q15 1 27 -7.5t14 -36.5q1 -13 -1.5 -25t-7.5 -25.5t-12.5 -30t-16.5 -37.5q-11 -26 -19 -44t-11 -27q-1 -3 -2 -9t-3.5 -12t-5.5 -11.5t-7 -7.5z" />
    <glyph glyph-name="o" unicode="o" horiz-adv-x="259" 
d="M418 281q-12 -7 -20.5 -11t-15.5 -7t-15 -6t-20 -6q-14 -5 -20 -5.5t-10.5 -2t-12 -6.5t-23.5 -18q-5 -6 -19.5 -16.5t-21.5 -14.5q-28 -20 -55.5 -33t-53.5 -2q-23 11 -27 32t4 50q9 31 25.5 59.5t37 56.5t44 54.5t47.5 53.5q12 15 27 22.5t28.5 8.5t25 -5t16.5 -18
q12 -28 6 -64q-2 -22 -8.5 -46t-13.5 -53q3 -9 10.5 -13t18 -3.5t22.5 4t25 8.5q17 6 14 -2.5t-15 -16.5zM207 327q-38 -54 -40 -85.5t14 -33.5q20 -2 37 10.5t33 33.5q-7 6 -12 15.5t-9.5 20.5t-10 21t-12.5 18zM303 428q-22 -30 -30 -47.5t-6.5 -28.5t9.5 -17t18 -13
q17 30 17 54.5t-8 51.5z" />
    <glyph glyph-name="p" unicode="p" horiz-adv-x="621" 
d="M208 112q-102 -95 -172 -197.5t-118 -211.5q-3 -8 -11 -22t-18 -30.5t-21 -34t-21.5 -31.5t-18.5 -23.5t-11 -10.5q-9 -5 -7.5 7t7.5 30t13 36t9 23q14 35 30.5 70t33.5 70l78 156t77 157q8 17 8 34.5t8 34.5t23 33.5t22 33.5q27 62 40 110.5t21 97.5q9 38 24 58t30 33
q8 5 20 9t17 4q8 0 16 -7.5t11 -20.5q-1 -15 -6.5 -28t-13 -25l-15 -24t-12.5 -25q-41 -92 -81 -184t-75 -187l70 70t72 69q74 69 153.5 128t168.5 104q35 17 70 29t70 4q-2 -26 -16 -48.5t-34.5 -45t-44.5 -45t-45 -48.5q60 11 114 20t112 20q15 1 8.5 -4.5t-22.5 -13.5
t-34.5 -16t-26.5 -10q-46 -12 -91 -21.5t-90 -23.5q-32 -10 -65 -22.5t-65 -29.5q-50 -25 -98 -42t-93 -9zM618 388q-33 -6 -72 -23t-80 -42t-81 -56.5t-73 -65.5q88 14 162.5 59.5t143.5 127.5z" />
    <glyph glyph-name="q" unicode="q" horiz-adv-x="383" 
d="M211 106q25 -4 44 -10q45 -13 46 -45t-43 -81q-27 -29 -53.5 -57.5t-52.5 -57.5q-78 -85 -141 -172.5t-123 -178.5q-4 -7 -7 -13.5t-8 -12.5q-15 -17 -31.5 -33.5t-37.5 -12.5q-11 2 -13.5 7.5t-0.5 13.5t6.5 17t9.5 17q38 72 77.5 143t80.5 143q27 50 55 99.5t56 99.5
q8 13 12.5 26t11.5 30q-50 -8 -94.5 -29t-90.5 -38q-17 -7 -33 -15t-32 -13q-9 -2 -18 1t-10 9q-2 5 5.5 16t15.5 16q41 26 81 50t81 49q30 19 59.5 38.5t58.5 35.5q35 18 53.5 28t28.5 20.5t16 26t16 42.5q1 5 -5.5 4.5t-9.5 -1.5q-75 -11 -85.5 26t44.5 104q23 27 50.5 54
t57.5 47q21 14 49 21.5t46 4.5q12 -2 17 -9.5t5 -18t-4 -23t-10 -24.5q-19 -38 -37.5 -75.5t-38.5 -76.5q-5 -9 -16 -30t-17 -34q45 15 97 32t126 34q20 5 35.5 7t18 -1.5t-13.5 -12.5t-58 -25q-21 -8 -48.5 -16t-56 -17.5t-55 -19.5t-45.5 -21q-11 -5 -19 -9t-15.5 -12.5
t-16 -24t-20.5 -42.5zM-7 -275q59 68 116 133.5t114 132.5q8 10 13.5 25t1.5 22q-4 8 -18.5 12t-24.5 -1q-16 -8 -32 -23t-25 -29q-38 -67 -72.5 -134.5t-72.5 -137.5zM328 465q-57 -23 -86.5 -61.5t-25.5 -83.5q26 9 52 34.5t44 51.5t24 44.5t-8 14.5zM154 126
q-22 -14 -43.5 -27t-42.5 -26q13 1 26.5 3t25 7.5t20.5 15.5t14 27z" />
    <glyph glyph-name="r" unicode="r" horiz-adv-x="412" 
d="M244 479q26 4 39.5 -4t21.5 -21t12.5 -27t12.5 -23q20 -24 50 -28.5t71 6.5q10 3 29 12t36 16t26.5 8.5t1.5 -10.5q-71 -66 -142.5 -73.5t-139.5 30.5q-2 6 -9 -3t-16 -24.5t-18 -34t-15 -30.5q-11 -22 -22 -44.5t-26 -43.5t-35 -39.5t-48 -33.5q-9 -3 -11.5 1t-1 10.5
t4.5 14t5 11.5q15 43 37 85.5t47 87.5q9 17 19 42t21 49.5t23.5 43t26.5 22.5z" />
    <glyph glyph-name="s" unicode="s" horiz-adv-x="287" 
d="M176 181q38 17 71 32t64.5 29t63.5 28t68 30q1 0 5.5 1.5t8 1.5t3.5 -2.5t-8 -10t-27 -20.5t-54 -34q-21 -12 -34.5 -20t-26 -15t-26.5 -15l-35 -20q-34 -20 -57 -43t-27 -60q-3 -32 -28 -62t-56 -56q-29 -25 -61 -33t-51 4q-17 10 -13.5 37t28.5 57q17 22 37.5 42.5
t43.5 37.5q32 22 43 43.5t12 47.5q2 35 7 71.5t13 74.5q11 54 45.5 102.5t93.5 87.5q18 13 38 22.5t40 17.5q10 4 21 6.5t20.5 2.5t17 -3.5t10.5 -11.5q4 -9 3.5 -21t-5.5 -24t-16.5 -23.5t-30.5 -20.5q-27 -12 -47.5 -12.5t-38.5 -3t-34.5 -14t-34.5 -44.5
q-29 -55 -37 -105.5t-9 -101.5zM97 52q-31 -22 -51 -41.5t-20 -50.5q36 17 50.5 38.5t20.5 53.5z" />
    <glyph glyph-name="t" unicode="t" horiz-adv-x="358" 
d="M301 597q-22 -2 -37.5 -1.5t-38.5 -4.5q-6 -2 -14 -5.5t-16.5 -6.5t-15.5 -5.5t-11 -1.5t-8 3.5t-6 7t-1.5 10t5.5 13.5q9 12 18.5 18t16.5 8q21 5 40 4.5t39 1.5q22 3 37 6t25.5 10.5t19.5 19.5t21 33q61 103 121 205t122 205q27 45 56.5 89t59.5 89q13 22 35 44
q23 23 42.5 24.5t20.5 -21.5q1 -26 -2 -55t-12 -58q-21 -68 -63 -133t-87 -131q-44 -62 -89 -122.5t-90 -122.5q-7 -9 -13.5 -20t-17.5 -30q118 29 229.5 56t223.5 53q9 3 6 -0.5t-15 -9.5t-31 -14.5t-42 -16.5q-29 -9 -45.5 -14t-30 -9.5t-30 -9.5t-44.5 -13
q-63 -18 -126.5 -34t-127.5 -33q-31 -8 -53 -24.5t-37 -45.5q-43 -81 -88 -162t-88 -162t-82.5 -162t-72.5 -162q-20 -52 -40.5 -103t-37.5 -105q90 68 165 145.5t150 155.5q73 78 143.5 156t148.5 154q13 13 12 10.5t-8 -12.5t-16.5 -22t-13.5 -17q-119 -143 -240.5 -282
t-257.5 -273q-18 -19 -37.5 -38t-41.5 -33q-33 -22 -52 -15t-14 38q5 23 14 46.5t17 46.5q76 192 173.5 381t201.5 381q8 13 14.5 26l13.5 27q1 1 3.5 5.5t4.5 8.5t1.5 7t-6.5 2zM771 1279q-100 -143 -180.5 -277.5t-151.5 -270.5q21 23 41 46t37 47q66 87 127.5 173.5
t109.5 177.5q13 25 20.5 50t-3.5 54z" />
    <glyph glyph-name="u" unicode="u" horiz-adv-x="297" 
d="M159 148q13 6 30 20.5t33.5 33.5t30.5 39.5t22 37.5q10 20 18.5 40t19.5 40q4 6 14 12.5t18 8.5q13 3 14.5 -3t3.5 -12q3 -4 2 -11t-3 -13q-6 -29 -18 -62.5t-20 -62.5q-4 -16 -4 -26t1.5 -16.5t2.5 -10t0 -6.5q-10 -12 -21 -17t-19 -1t-11.5 18t1.5 40q-20 -18 -38 -35
t-38 -32q-42 -33 -71.5 -31t-31.5 40q-2 22 1.5 46.5t11.5 48.5q11 32 26 63.5t30 63.5q6 14 15 23t29 13q10 1 16.5 -2.5t9 -10t2.5 -13.5t-1 -13q-6 -17 -13 -27t-16 -22.5t-20 -31.5t-24 -53q-3 -9 -7 -23t-6 -26.5t-0.5 -21t10.5 -5.5z" />
    <glyph glyph-name="v" unicode="v" horiz-adv-x="248" 
d="M137 62q-9 -5 -12.5 0t-4 15t0.5 21t2 18q2 25 6.5 50.5t9.5 51.5q10 49 19.5 97.5t21.5 98.5q3 9 12.5 21.5t17.5 17.5q10 5 21 5t20 -3.5t14.5 -8.5t4.5 -11q-7 -17 -15 -32.5t-16.5 -32t-17 -37t-14.5 -47.5q-3 -11 -7.5 -28t-8.5 -33t-5.5 -27t1.5 -9q28 27 46.5 56
t36 56.5t38 52t51.5 42.5q13 7 15 4.5t0 -8.5q-26 -42 -51.5 -82.5t-50.5 -82.5q-12 -20 -23 -41t-26 -42t-35.5 -41.5t-50.5 -40.5z" />
    <glyph glyph-name="w" unicode="w" horiz-adv-x="449" 
d="M238 183q-25 -29 -49 -58t-50 -58q-18 -21 -38.5 -42t-42.5 -39q-21 -17 -35 -14.5t-13 22.5q2 17 6.5 35.5t13.5 36.5q35 74 71 147t74 147q21 42 36 80.5t36 80.5q19 24 36 28t27.5 -4.5t13 -26t-6.5 -36.5q-9 -16 -18.5 -28.5t-20 -26t-23.5 -29t-30 -36.5
q-8 -14 -12.5 -22.5t-9.5 -17t-10.5 -19.5t-14.5 -28q-12 -24 -21.5 -44.5t-18.5 -41.5t-19 -44.5t-23 -52.5q-3 -11 8 0t30 33t43.5 49.5t47.5 51t43 37t30 6.5t11.5 -28t-1 -48t-7 -56.5t-6.5 -54t0 -40t13 -13.5q5 1 17 14t29 34t36 48t37 55t34 55t26 49q15 33 20 63
t3.5 58.5t-7 55.5t-9.5 55q-3 15 4 15t16.5 -7.5t19 -18.5t11.5 -18q11 -37 11.5 -77t-16.5 -87q-25 -72 -67.5 -140t-90.5 -137q-6 -8 -13 -15.5t-14 -15.5q-17 -19 -37.5 -32.5t-43.5 -15.5q-27 -2 -35.5 13t-8.5 35q1 26 4.5 53t7.5 55q2 14 5.5 28.5t5.5 28.5
q2 16 0 17.5t-15 -14.5z" />
    <glyph glyph-name="x" unicode="x" horiz-adv-x="330" 
d="M436 420q-9 -5 -22.5 -3.5t-26.5 -4.5q-72 -34 -75 -54q-2 -31 15 -50t38 -30t38 -17t16 -10q-11 -27 -29.5 -37t-35.5 -7q-19 4 -35 13t-29 20q-11 11 -18 30t-15 35q-9 1 -24 -13t-33.5 -34.5t-37.5 -44.5t-36 -43.5t-29.5 -31.5t-16.5 -9q-8 11 -8 22t5.5 22t14 22
t16.5 21q20 24 42 46.5t44 43.5q32 29 39.5 52.5t-18.5 40.5q-13 8 -10 27.5t28 36.5q16 11 24.5 10.5t13 -7t7 -15t7.5 -14.5q5 -8 8 -15.5t8 -12.5q26 14 47.5 24t38.5 17q48 18 66.5 18t19 -8.5t-11.5 -21t-25 -18.5z" />
    <glyph glyph-name="y" unicode="y" horiz-adv-x="520" 
d="M142 -235q-17 5 -25.5 20t-8.5 36t8.5 46.5t26.5 50.5q15 20 31.5 41t36.5 39q30 28 47 56t28 59q10 27 17 47t13.5 39t13.5 39t17 47q3 8 6.5 21t5 25t1 18.5t-5.5 1.5q-23 -26 -47 -53t-49 -53q-12 -12 -24 -25t-25.5 -23t-28.5 -16t-33 -3q-15 3 -23.5 10.5t-12 18.5
t-2 24.5t5.5 27.5q14 45 32 90t38 90q4 10 13 22t20 23t22 18.5t19 7.5q12 3 21 -0.5t12.5 -12t-0.5 -21.5t-19 -31q-21 -26 -42.5 -62.5t-36 -69t-18.5 -54t10 -17.5q14 6 23.5 14.5t17.5 17.5q37 39 72.5 79t71.5 78q25 26 40.5 33t24.5 6q7 -2 11 -14t0 -23
q-16 -50 -34.5 -99.5t-37.5 -100.5q-8 -21 -12 -34t-7.5 -25.5t-8.5 -27.5t-14 -39q46 27 91 55.5t89 55t87.5 48.5t87.5 34q9 0 2.5 -6.5t-20 -15.5t-28.5 -17.5t-23 -12.5q-66 -38 -128 -83t-125 -90q-33 -23 -54 -49t-35 -58q-20 -42 -45.5 -83t-51.5 -83
q-5 -10 -14.5 -23t-23.5 -14z" />
    <glyph glyph-name="z" unicode="z" horiz-adv-x="406" 
d="M-451 -487q-5 2 -1.5 10.5t10.5 19.5t16 22t15 19q59 77 131 143t149 127q82 65 165 126t168 121q57 40 86 85t40 94q8 38 -10.5 48t-61.5 -7q-20 -8 -40.5 -19.5t-40.5 -19.5q-9 -5 -22 -6.5t-15 3.5q-4 7 -3.5 19t6.5 20q24 31 50 60l52 58q13 15 27.5 29.5l31.5 31.5
q6 7 10.5 13.5t2 9t-13 -2.5t-34.5 -21q-13 -9 -27 -17t-27 -14t-23.5 -8t-16.5 1q-23 19 -14 36t33 30.5t55.5 23.5t53.5 16q12 3 30 8t34.5 9t29.5 5t16 -3q-1 -28 -21.5 -51.5t-42.5 -47.5q-23 -24 -45.5 -49.5t-48.5 -55.5q20 2 41 5.5t39 3t31 -7t17 -23.5
q7 -29 3.5 -64t-4.5 -73q18 8 43 18.5t52.5 22t54 22t46.5 17.5q7 3 0 -8.5t-20 -21.5q-10 -7 -16.5 -10.5t-17.5 -9.5q-5 -2 -13 -6l-14 -7q-81 -40 -150.5 -89t-132.5 -119q-130 -147 -281 -268.5t-319 -230.5q-8 -5 -12.5 -7.5t-14.5 -6.5q-23 -8 -36 -3zM148 19
q-44 -25 -93.5 -59t-98.5 -72t-95.5 -78t-84 -76.5t-63.5 -67.5t-35 -51q133 90 250 188.5t220 215.5z" />
    <glyph glyph-name="d" unicode="d" horiz-adv-x="310" 
d="M454 -128q17 5 26 -1.5t7 -22.5q-4 -20 -24.5 -31t-47 -14t-55 1t-48.5 13q-38 17 -62 44.5t-26 71.5q-2 54 1.5 110t5.5 115q-10 -5 -22.5 -11.5t-26.5 -13.5q-32 -15 -58.5 -18.5t-45.5 11.5q-10 8 -12.5 18t0 22t8 24.5t12.5 24.5q41 72 91 118.5t113 78.5
q11 6 21.5 11t18.5 10q51 94 99 185.5t97 182.5q5 9 8.5 18.5t9 18t13.5 15t21 9.5q12 3 18.5 -1t9 -11.5t2 -17t-2.5 -17.5q-5 -24 -7.5 -41.5t-10.5 -42.5q-10 -28 -24 -56.5t-28 -58.5q-32 -89 -86 -183t-116 -175q-32 -42 -49 -99.5t-18.5 -114.5t11.5 -104.5t42 -68.5
q18 -14 34.5 -17.5t33 -1t33 8.5t34.5 11zM233 208q8 8 15 15.5t9 15.5q14 31 27.5 62.5t29.5 69.5q-26 -9 -47.5 -18.5t-40.5 -23t-36 -33t-34 -47.5q-21 -34 -27.5 -53.5t10.5 -27.5q14 -6 42 5.5t52 34.5zM529 708q-23 -24 -47.5 -63.5t-45 -82.5t-34 -83.5t-14.5 -66.5
q22 24 42.5 54.5t37.5 63t31 63t24 54.5l8.5 25.5t6.5 24t0 14.5t-9 -3z" />
    <glyph glyph-name="A" unicode="A" horiz-adv-x="1043" 
d="M631 605q-15 -13 -25 -15t-16 1.5t-8 9.5t-1 10q2 8 10 20.5t17 26t18 26t12 21.5q25 57 36 109.5t5 101.5q-6 48 -34.5 48t-76.5 -49q-33 -33 -64 -69t-57 -73q-95 -130 -165.5 -260t-121.5 -264q-13 -35 -23.5 -68.5t-15 -66t-1.5 -62t17 -55.5q4 -6 7.5 -12t6.5 -11
q29 -37 65.5 -34t95.5 46q2 2 4 2.5t4 2.5q94 79 175.5 166t159.5 184q-17 6 -31 10.5t-25 11.5q-5 3 -11 7t-11 8t-8 8.5t-1 7.5q8 14 23 28.5t32 24.5q69 41 143 75q29 13 49 28.5t37 41.5q75 110 150.5 218t149.5 218q23 34 41 69t35 70q44 93 85.5 184t85.5 184
q4 8 7.5 16.5t9.5 16.5q8 8 18.5 17.5t17.5 9.5q10 1 19.5 -4t11.5 -13q2 -12 -1 -27.5t-10 -29.5q-15 -32 -31.5 -63.5t-36.5 -62.5q-117 -183 -181 -366q-29 -82 -59 -163.5t-59 -163.5q-7 -18 -11 -36t-11 -38q85 9 168.5 17.5t164 12t157.5 0t149 -18.5q2 0 9.5 -3
t12.5 -6.5t4 -6t-16 -2.5q-86 0 -166.5 2.5t-162.5 -2.5q-82 -6 -165 -14.5t-175 -35.5q-14 -43 -27.5 -83t-25.5 -79q-70 -229 -140 -454t-139 -454q-14 -44 -27 -86.5t-15 -87.5q-3 -40 -11 -59.5t-20 -36.5q-25 -38 -55 -34q-9 1 -14.5 7.5t-3.5 25.5q1 6 4 13t5 13
q76 237 151.5 471.5t151.5 470.5q25 77 48 153t47 152q3 13 5.5 27t7.5 34q-43 -14 -81.5 -25t-75.5 -26q-13 -5 -27.5 -19.5t-25.5 -27.5q-72 -86 -141.5 -172t-144.5 -171q-37 -43 -80 -82.5t-89 -76.5q-74 -61 -136.5 -66t-100.5 44q-26 35 -34.5 79.5t8.5 100.5
q21 66 44.5 132.5t53.5 133.5q55 125 129 246t171 239q20 25 43.5 49.5t48.5 45.5q28 23 53.5 34t47 10.5t37 -12t22.5 -34.5q14 -45 7.5 -97t-26.5 -108l-13 -39t-16 -42t-21 -40.5t-27 -34.5zM1019 615q13 27 26.5 59.5t26.5 66.5t23.5 67.5t18.5 61.5t12 48.5t3 29.5
q-64 -94 -127.5 -188t-130.5 -192q40 13 75.5 24t72.5 23zM743 457q9 14 3.5 13.5t-14.5 -3.5q-5 -1 -21.5 -9t-34.5 -18t-31 -19.5t-10 -12.5q14 -5 20 -8t12 -4l17.5 -2.5t14.5 3.5q8 10 14 18l12 16q5 6 10 13t8 13z" />
    <glyph glyph-name="B" unicode="B" horiz-adv-x="1594" 
d="M439 972q7 18 21 26.5t27.5 8.5t24 -8.5t11.5 -24.5q14 -63 9 -136t-28 -149q-45 -145 -91 -288.5t-92 -288.5q-5 -17 -9.5 -33t-5.5 -33q22 42 44.5 83.5t42.5 83.5q70 148 166.5 286.5t225.5 269.5q30 31 65 57.5t70 54.5q10 8 20.5 14.5t22.5 11.5q29 13 42.5 3
t-0.5 -37q-14 -28 -33 -56t-42 -54q-49 -57 -102 -112l-106 -110q-54 -57 -109 -113t-113 -116q-9 -9 -1.5 -9t21.5 4.5t30.5 11t24.5 10.5q106 47 209 95.5t206 88.5q152 58 297.5 86.5t282.5 22.5q32 -2 62 -8.5t56 -17.5q47 -20 47.5 -53.5t-44.5 -88.5
q-45 -57 -98 -105.5t-112 -94.5q-100 -78 -204.5 -143.5t-213.5 -121.5q-151 -77 -300.5 -149t-301.5 -146q-14 -7 -29 -12.5t-29 -8.5q-7 -2 -17 0.5t-12 7.5q-1 5 3 12.5t15 18.5q3 2 9 6.5t9 6.5q37 22 73.5 42t72.5 41t73 43.5t75 48.5q12 8 24 19t24.5 21t26 17.5
t29.5 7.5q16 -1 15 -9t-13 -20t-32 -26.5t-42 -26.5q-31 -17 -62 -36t-49 -37q42 20 74.5 35.5t64.5 29.5q152 72 299.5 153.5t292.5 180.5q74 51 144 105t126 126q45 57 41 83.5t-58 38.5q-57 12 -119 13t-131 -10q-161 -25 -320.5 -76.5t-324.5 -138.5q-58 -30 -115.5 -56
t-116.5 -51q-29 -12 -41.5 -30t-21.5 -38q-33 -72 -65.5 -144t-62.5 -144q-25 -60 -46 -120t-44 -120q-2 -3 -2.5 -6.5t-2.5 -6.5q-6 -19 -17 -34t-34 -18q-10 -2 -14.5 1.5t-5.5 9.5t0 14t3 15q10 42 19.5 82t23.5 82q52 169 106.5 335.5t105.5 334.5q26 83 46.5 164.5
t40.5 163.5q14 60 -15 101q-6 7 -11.5 15t-8.5 17.5t-2.5 23t6.5 31.5zM906 812q-51 -32 -93 -70t-78 -79.5t-67.5 -85.5t-62.5 -89q87 75 162.5 154.5t138.5 169.5z" />
    <glyph glyph-name="C" unicode="C" horiz-adv-x="1409" 
d="M2074 1225q12 -7 6.5 -20t-18.5 -26q-39 -38 -69.5 -74.5t-58.5 -73.5t-55 -75.5t-58 -80.5q-23 -36 -52 -53t-43 -9q-11 8 -12.5 21t3 26.5t12 26.5t15.5 22q25 24 42.5 38l32.5 26t30 26.5t33 38.5q45 47 74 94.5t49 98.5q24 63 22.5 109t-26.5 75.5t-70.5 41
t-108.5 4.5q-68 -8 -137 -36.5t-138 -67.5q-100 -57 -196 -121.5t-189 -138.5q-261 -207 -490.5 -439t-431.5 -483q-86 -106 -164 -213t-144 -219q-35 -59 -63 -117t-38 -116q-25 -125 104 -129q66 -3 136 9t144 38q126 42 248.5 98t246.5 122q27 14 74 41.5t102.5 59.5
t113.5 66t106.5 61.5t82.5 44.5t41 17q8 1 4.5 -6.5t-32.5 -30.5q-15 -12 -42 -29t-60.5 -36.5t-70 -40t-70 -39t-61.5 -34t-44 -23.5q-110 -58 -219 -115t-221 -111q-94 -45 -189 -78.5t-189 -48.5q-35 -6 -71 -8.5t-70 -0.5q-72 3 -102.5 45.5t-7.5 115.5q14 48 34.5 96.5
t46.5 96.5q88 155 198 301.5t232 290.5q187 220 393 426t439 391q118 94 241 178t257 146q66 31 131 53t127 22q109 1 157.5 -48t23.5 -161q-4 -19 -6.5 -36.5t15.5 -28.5z" />
    <glyph glyph-name="D" unicode="D" horiz-adv-x="1324" 
d="M383 847q27 41 44.5 46.5t28 -6.5t14 -32t2.5 -31q-8 -55 -15.5 -109t-18.5 -109q-6 -34 -14 -68.5t-10 -69.5q45 73 87 147q51 85 108 167.5t121 163.5q49 62 109 110.5t124.5 81t130.5 48.5t126 12t111.5 -28t87.5 -71q34 -46 46 -104.5t10 -123.5q-2 -57 -10 -116
t-15 -121q3 0 19.5 2.5t39 6t48 7.5t47 7t34.5 4.5t12 -0.5q-2 -3 -13.5 -9.5t-31.5 -12.5q-15 -6 -45 -15.5t-60.5 -21t-55.5 -24.5t-29 -26q-34 -116 -106.5 -222.5t-172.5 -209.5q-142 -146 -297 -272.5t-329 -234.5q-107 -66 -214.5 -117t-219.5 -73q-25 -5 -49 -8
t-46 -2q-79 2 -113.5 46.5t-18.5 124.5q16 75 59.5 146.5t104.5 139.5q47 50 96.5 97t101.5 94q23 22 36.5 42.5t19.5 45.5q17 73 33 142t31.5 136.5t31 136t32.5 142.5q3 25 -5.5 38t-16 25t-8 28.5t17.5 49.5zM229 29q-2 2 -7.5 -2t-11.5 -10t-11 -12t-7 -8
q-53 -56 -101.5 -102.5t-96.5 -104.5q-41 -51 -66 -104.5t-30 -106.5q-5 -60 24 -91.5t92 -28.5q31 2 65 7t67 14q88 24 172.5 65.5t168.5 92.5q322 199 591 471q97 98 165 200t110 213q8 22 10.5 34.5t-3 17t-20 2.5t-38.5 -9q-69 -21 -138 -41.5t-138 -43.5
q-168 -57 -328.5 -139t-317.5 -189q-78 -53 -90 -121q-6 -27 -10.5 -47.5t-8.5 -39.5t-7.5 -39t-7.5 -47q-2 -11 -7.5 -34.5t-15 -49t-23 -47.5t-31.5 -30q-10 -2 -11.5 14.5t1.5 39t7.5 46t6.5 36.5q8 52 23.5 99t22.5 95zM1375 614q21 48 30.5 111t9 125t-10.5 115t-26 82
q-70 119 -248 98q-215 -25 -374 -222q-133 -167 -232 -338.5t-171 -346.5q-3 -9 -9.5 -25t-11.5 -30.5t-6.5 -24t6.5 -4.5q131 93 261.5 165t261 127t260.5 96t260 72z" />
    <glyph glyph-name="E" unicode="E" horiz-adv-x="1633" 
d="M1159 -194q43 13 54.5 8t4 -18.5t-27.5 -32t-38 -31.5q-66 -48 -134 -80.5t-138 -56.5q-109 -38 -213 -55.5t-206 -20.5q-69 -2 -137 2.5t-135 10.5q-60 6 -108 26t-91 49q-39 26 -56 66t-15 88t21 100.5t51 103.5q45 74 101 135.5t121.5 112.5t138.5 92t151 74
q90 38 179 69t178 63q24 9 46.5 17t42.5 16q-3 12 -6 28.5t-5.5 34.5t-3 37.5t2.5 37.5q7 39 27 78t49 76t65 72t75 66q84 67 173 115t181 90q120 55 239.5 99t240.5 79q131 37 258.5 72t255.5 58q122 23 237.5 31t225.5 0q48 -4 91 -16.5t85 -26.5q13 -5 23 -14.5t17 -21.5
t9.5 -25t1.5 -23q-2 -8 -5 -22.5t-11 -29t-22 -24t-37 -6.5q-14 4 -15.5 13t0.5 22t4.5 29t-1.5 33q-4 16 -13.5 26t-21.5 17t-26 11t-27 7q-35 9 -76.5 10t-82.5 2q-45 1 -89.5 0.5t-90.5 -3.5q-72 -5 -146.5 -16.5t-150 -28t-151.5 -36t-152 -39.5q-137 -36 -273 -86
t-274 -113q-99 -45 -195 -99.5t-184 -129.5q-83 -70 -122.5 -144.5t-41.5 -152.5q-1 -44 19 -55t73 1q135 32 261 42t246 0q44 -4 85.5 -10t77.5 -26q16 -11 8.5 -21t-25.5 -18.5t-40 -13.5t-34 -6q-109 -9 -217.5 -19t-217.5 -19q-61 -5 -116.5 -2t-104.5 23
q-11 5 -27.5 3.5t-30.5 -6.5q-107 -32 -212.5 -67t-211.5 -87q-64 -32 -126 -65.5t-124 -73.5q-94 -60 -160.5 -137t-110.5 -167q-44 -89 -32.5 -154t64.5 -110q32 -27 74 -42t91 -23q134 -21 277.5 -18t301.5 42q62 16 114 36.5t114 49.5q16 7 34.5 23t38 34t40.5 34.5
t43 26.5zM1065 534q32 -10 92.5 -12t133.5 2.5t150 15.5t142 27q-125 12 -250.5 7t-267.5 -40z" />
    <glyph glyph-name="F" unicode="F" horiz-adv-x="605" 
d="M465 798q-21 -3 -37 -6t-33 -4q-28 -2 -31 11.5t20 37.5q27 29 55 56.5t57 53.5q23 21 38.5 19.5t15.5 -23.5q-1 -18 -4 -38t-8 -46q97 29 189.5 57t186.5 58q13 5 29 19.5t24 27.5q33 57 67 114t64.5 114.5t55 115t38.5 115.5q3 9 2.5 18.5t-7.5 20.5
q-74 -102 -148 -202t-149 -202q-4 -6 -9 -11t-8 -6t-3.5 3.5t4.5 17.5q8 32 33 61.5t45 59.5q20 32 41 62.5t42 61.5q23 32 44.5 65t44.5 65q23 30 45.5 59t44.5 58q18 25 27 24t12 -14.5t2 -32t-2 -27.5q-8 -78 -38 -157t-76 -160q-32 -58 -65.5 -117t-70.5 -124
q16 3 31 5.5t29 6.5q207 53 412 105t412 104q25 6 55 11.5t54 7.5q14 2 24.5 -2t14 -12.5t-2 -21t-24.5 -26.5q-10 -5 -22 -6t-24.5 0t-24 2.5t-18.5 3.5q-23 4 -61.5 -3t-81.5 -18q-186 -47 -369.5 -94.5t-369.5 -95.5q-39 -10 -66.5 -29.5t-47.5 -56.5q-17 -32 -39.5 -64
t-48.5 -71q19 4 34.5 6.5t30.5 6.5q120 29 238.5 58.5t237.5 57.5q18 4 46 10.5t51 7.5t35 -6.5t-1 -29.5q-9 -9 -20.5 -21t-27.5 -14q-19 -5 -36.5 -6t-38.5 -0.5t-47.5 -0.5t-62.5 -5.5t-84 -15t-113 -29.5q-60 -18 -117.5 -33t-115.5 -31q-24 -7 -42.5 -19.5t-35.5 -34.5
q-140 -189 -278.5 -376t-279.5 -376q-11 -14 -20.5 -29t-21.5 -29q-5 -5 -16 -10.5t-16 -4.5q-5 2 -7.5 9.5t-0.5 13.5q14 37 36 74q118 214 194.5 421t106.5 413q2 9 1.5 18.5t0.5 23.5zM518 817q-17 -92 -38.5 -184t-48.5 -183.5t-61.5 -184t-77.5 -185.5
q115 143 226 286.5t215 300.5q-12 -3 -27.5 -8.5t-38.5 -11.5q-27 -8 -55.5 -11.5t-48.5 -4t-26.5 3t10.5 9.5q20 9 38 17t35 14q28 10 54 17.5t55 17.5q12 5 26.5 11t21.5 15q35 43 66 89t60 101q-99 -28 -191 -54.5t-194 -54.5z" />
    <glyph glyph-name="G" unicode="G" horiz-adv-x="1060" 
d="M779 -217h193q8 -1 5.5 -5t-10.5 -9q-9 -5 -19 -10t-18 -7q-29 -4 -56 -6l-54 -4q-25 -2 -39.5 -5t-25 -9.5t-20 -20t-22.5 -36.5q-62 -103 -136 -199t-163 -188q-26 -26 -55.5 -50.5t-59.5 -45.5q-34 -24 -53 -20.5t-20 33.5q-8 139 71.5 273.5t247.5 243.5
q29 19 60.5 30.5t61.5 20.5q23 6 36.5 10t22.5 10.5t15 18t14 32.5q38 92 73.5 183.5t69.5 183.5q16 46 27.5 93.5t28.5 105.5q-23 -20 -35.5 -29.5t-20.5 -18.5q-65 -66 -127.5 -131t-126.5 -130q-45 -45 -88.5 -89t-89.5 -86q-68 -62 -128.5 -94.5t-111 -36.5t-89 21.5
t-62.5 80.5q-56 124 10 290q101 253 269 499q66 98 131.5 195.5t137.5 194.5q122 165 259.5 320.5t298.5 299.5q74 64 151 118q70 47 131.5 67t109.5 13.5t79 -39t41 -89.5q14 -85 6 -177t-37 -191q-55 -198 -168 -386.5t-266 -374.5q-11 -13 -24 -27.5t-27 -23.5
q-5 -5 -18 -5.5t-17 3.5q-3 3 -7 12t0 23q8 23 21 40t30 33q49 44 89 86.5t74.5 87t65 92.5t61.5 102q77 137 123 270t52 262q2 42 1 83t-8 79q-7 41 -29.5 65t-57 31t-79 -4.5t-96.5 -40.5q-60 -34 -113 -77.5t-104 -91.5q-200 -187 -366 -390t-310 -417
q-86 -128 -165.5 -256t-139.5 -260q-21 -46 -39 -91t-29.5 -88.5t-13.5 -85t10 -79.5q9 -30 26 -56t37 -49q21 -25 58 -23.5t80 26.5q38 23 77 48.5t71 56.5q122 122 240 244.5t239 246.5q7 8 13 16t13 14q18 14 32.5 13t14.5 -18q-3 -42 -14 -89q-31 -131 -76 -261
t-106 -264q-8 -18 -16.5 -38t-21.5 -49zM281 -773q36 26 78 65.5t84.5 86.5t82.5 97.5t72 97t53.5 86t26.5 64.5q-73 -10 -132 -50.5t-115 -97.5q-83 -87 -120.5 -172.5t-29.5 -176.5z" />
    <glyph glyph-name="H" unicode="H" horiz-adv-x="1160" 
d="M1246 596q58 10 122.5 22.5l129 25t126.5 24.5t116 21q3 0 -1.5 -3t-13.5 -8t-21 -10.5t-22 -9.5q-20 -6 -39.5 -14.5t-39.5 -13.5q-78 -17 -154.5 -33.5t-154.5 -33.5q-26 -6 -40.5 -10t-23.5 -11.5t-15.5 -21t-17.5 -38.5q-64 -141 -128 -281t-129 -281l-34 -72
t-47 -72q-21 -5 -30.5 -0.5t-13 12.5t-3 19t-0.5 20q-5 54 -8.5 106.5t-8.5 106.5q-2 26 -6.5 50t-8.5 49q-2 4 -2 10.5t-1.5 8.5t-5 -2.5t-10.5 -21.5q-42 -103 -82.5 -205t-82.5 -205q-4 -9 -4 -12t11 11q26 39 51.5 77.5t51.5 77.5q3 5 7 9.5t6 6t2.5 -2t-2.5 -13.5
q-8 -17 -15 -33t-15 -33q-74 -148 -146 -295q-3 -6 -5 -12.5t-7 -13.5q-4 -8 -11.5 -19.5t-15.5 -21.5t-17 -16.5t-16 -3.5q-8 3 -9.5 10t0 16t4.5 18.5t6 16.5q30 82 59.5 165t61 165.5t66 165.5t75.5 166q47 97 28 175q-3 15 -11 33.5t-14 37t-7.5 34.5t8.5 26
q15 14 43.5 22t51.5 16q29 9 45 14.5t26 14t17.5 22t19.5 37.5q83 175 162 348t140 348q14 43 21 84.5t14 83.5q5 28 -10 39.5t-44 9.5q-89 -3 -180 -59q-151 -96 -286 -207t-244 -251q-52 -68 -86 -138q-36 -77 -30.5 -135t57.5 -96q17 -12 34.5 -25.5t36.5 -26t38.5 -22.5
t40.5 -14q26 -3 33.5 -19t-11.5 -39q-17 -18 -36 -18t-26 3q-66 30 -114.5 80t-85.5 107q-16 24 -20 51.5t1.5 58t19 63.5t33.5 67q61 104 146.5 195t186.5 173q71 58 145 111t149 106q52 36 104.5 53.5t104.5 25.5q48 7 71 -6t21 -55q-3 -47 -12 -95.5t-27 -97.5
q-63 -180 -144 -357.5t-173 -357.5q-4 -7 -6.5 -14.5t-7.5 -20.5q54 5 109 18.5t111 27.5q8 2 20 14.5t17 22.5q14 26 24.5 50.5t21.5 50.5q45 106 90 210.5t87 210.5q9 23 8 44t5 43q6 18 11.5 38t11.5 39.5t12 37.5t14 31q1 2 5 7t10 10t13.5 9t15.5 5q13 2 16 -7.5
t3 -15.5q0 -14 -7 -32.5t-12 -33.5q-35 -96 -70.5 -190t-73.5 -190q-26 -66 -56.5 -131t-59.5 -131q-8 -17 -16 -35t-21 -45zM856 -130q1 -10 3 -12.5t5 -0.5t7 7.5t8 11.5q66 144 132.5 286.5t132.5 286.5q4 10 11.5 24t12.5 27.5t6 23t-7 9.5q-55 -5 -109 -18t-108 -29
q-8 -2 -18.5 -13t-14.5 -19q-18 -39 -39 -79t-36.5 -79t-23.5 -77t0 -75q14 -67 21 -136t17 -138zM871 460q-4 1 -12.5 -1t-19 -6t-22.5 -9.5t-22 -10.5l5.5 -49.5t4.5 -44.5q1 -8 2 -9t3 1t4 6t5 7q6 15 12 27.5t12 26t12.5 28.5t15.5 34z" />
    <glyph glyph-name="I" unicode="I" horiz-adv-x="538" 
d="M136 -514q10 27 18 48.5t15.5 41.5l15 40l16.5 44q35 99 71 196.5t72 196.5q26 69 52 137t55 137q49 121 100.5 241t99.5 241q46 115 87.5 229.5t78.5 229.5q11 35 6.5 67t-8.5 63q-1 9 -14 13t-24 6q-9 2 -22 -1t-26.5 -6.5t-26 -6t-22.5 -0.5q-3 1 -9.5 4t-12 8.5
t-7.5 14t3 19.5q7 11 18.5 16.5t22.5 7.5t20 2h12q56 -6 115.5 -5t120 5t121 7.5t118.5 2.5q45 -1 87 -4t85 -5q22 -3 31 -7.5t-2 -12.5q-36 -2 -82.5 -5t-95.5 -6t-98 -6.5t-89 -7.5t-67.5 -8t-35.5 -8q-6 -6 -14 -20t-15 -31.5t-10.5 -37t-1.5 -35.5q4 -23 -6 -46.5
t-31 -49.5q-15 -20 -27 -41.5t-20 -42.5q-29 -67 -56 -133.5t-54 -133.5q-69 -171 -137 -341t-135 -341q-61 -156 -120 -310t-119 -310q-5 -17 -8.5 -27.5t-8.5 -26.5q-1 -10 21.5 -10t56 4.5t70.5 10t66 7.5q5 0 13 0.5t13 -1t3 -5.5t-16 -11q-18 -6 -37 -13t-38 -12
q-72 -17 -143 -36t-140 -24l-14 -2t-13 -1q-7 0 -15 -0.5t-14 1.5t-8 6.5t3 15.5q1 3 6 7t12.5 7.5t15.5 6.5t14 5q12 3 29 6.5t33.5 8.5t29.5 11.5t16 15.5z" />
    <glyph glyph-name="J" unicode="J" horiz-adv-x="1628" 
d="M-57 -484q-47 44 -63 105.5t18 146.5q48 121 118 237t155 231q262 351 590 659q149 141 309.5 265.5t341.5 219.5q68 35 135 62.5t135 44.5q133 34 182 -54q39 -75 43.5 -163t-29.5 -191q-46 -143 -107 -286t-136 -288q-9 -18 -18 -36.5t-17 -37.5q-2 -5 -2 -10t-1 -14
q45 24 88 47t84 46q124 67 245.5 128.5t248.5 114.5q111 47 221.5 92t222.5 90q9 3 28 9t40 11t38.5 6.5t22.5 -2.5q4 -4 -11.5 -12.5t-38.5 -17.5t-45.5 -17.5t-31.5 -12.5q-94 -38 -186.5 -74.5t-186.5 -73.5q-174 -70 -342.5 -154t-338.5 -178q-55 -31 -89 -67t-58 -85
q-37 -79 -74.5 -157.5t-79.5 -156.5q-73 -138 -146.5 -274t-147.5 -273q-54 -100 -107 -200t-108 -200q-44 -78 -91 -156t-91 -156q-16 -28 -34.5 -43.5t-36.5 -20.5t-33 0.5t-24 19.5q-19 24 -28.5 55.5t-9.5 65.5q-4 149 23.5 303.5t90.5 319.5q50 130 122.5 253.5
t182.5 242.5q88 96 187 177.5t206 156.5q45 31 89 61.5t90 59.5q26 16 41.5 34.5t24.5 41.5q60 138 120.5 274.5t118.5 274.5q29 68 45.5 133t18.5 128q2 48 -8 88t-28 77q-41 85 -169 56q-68 -15 -135 -44t-134 -64q-137 -72 -259 -163t-239 -195q-155 -137 -295 -281.5
t-266 -300.5q-53 -66 -97.5 -124t-83 -115.5t-73.5 -118t-69 -130.5q-18 -41 -32 -78t-20 -71t-3 -65.5t18 -60.5q6 -6 13.5 -9.5t16 -6t17.5 -5.5t18 -9q8 -11 8.5 -22t-4 -22t-11.5 -21t-14 -17q-8 -14 -27.5 -12.5t-37.5 9.5zM597 -1339q11 15 21.5 29t18.5 28
q69 116 137 231t132 233q106 195 208 389t205 390q31 58 63.5 116t61.5 117q13 25 26.5 51.5t16.5 55.5q-81 -56 -157.5 -106t-149.5 -106q-156 -120 -274 -256.5t-196 -297.5q-74 -154 -115.5 -300.5t-53.5 -289.5q-6 -58 -3.5 -113t5.5 -110q2 -22 13.5 -39t40.5 -22z" />
    <glyph glyph-name="K" unicode="K" horiz-adv-x="1041" 
d="M1102 -199q12 -17 42 -30t65 -23.5t67 -19.5t48 -18.5t9 -20t-50 -24.5q-16 -3 -31 -2.5t-28 3t-23 5.5t-16 5q-59 19 -93 48.5t-65 73.5q-35 48 -57 103.5t-25 123.5q-5 72 -10.5 142.5t-3.5 144.5q1 39 -12.5 63.5t-36.5 36t-54.5 12t-66.5 -8.5q-23 -5 -47 -12.5
t-48 -15.5q-53 -18 -88 -68q-60 -85 -120.5 -170t-118.5 -170.5t-112 -172t-102 -174.5q-32 -62 -44.5 -99.5t-17 -62.5t-6.5 -43t-13 -42q-5 -14 -11.5 -28.5t-15 -27.5t-19 -22.5t-23.5 -12.5q-13 0 -19 3.5t-7.5 9.5t0 14t3.5 16q20 70 51 139.5t69 140.5q40 75 87 148
t96.5 145t100 144t98.5 145q17 27 37 54.5t34 59.5q-16 -10 -31.5 -16.5t-32.5 -17.5q-34 -19 -75 -43.5t-84.5 -53t-86.5 -62t-80 -70.5q-9 -6 -19.5 -17.5t-21 -24.5t-20.5 -24t-19 -15q-13 -7 -31.5 -8.5t-29.5 15.5q-2 5 1.5 11.5t8.5 13.5t10.5 13t9.5 10q53 51 110 96
t120 81q69 39 136 76.5t136 74.5q32 17 58 39t46 51q89 125 177.5 249t176.5 249q69 101 138 201.5t134 203.5q48 75 89.5 151.5t78.5 153.5q36 75 3.5 99t-116.5 -13q-85 -38 -162.5 -93.5t-147.5 -124.5q-175 -172 -296 -354.5t-196 -379.5q-6 -17 -4.5 -29.5t7.5 -22.5
t15.5 -18.5t18.5 -17.5q12 -16 6 -34t-23 -29q-17 -12 -31.5 -8t-19.5 9q-43 36 -25 107q20 72 54 143.5t79 142.5q53 82 108.5 163.5t117.5 160.5q75 97 163 183.5t197 155.5q45 29 92 53.5t94 41.5q39 14 68 13t46.5 -15t20.5 -40t-11 -62q-23 -57 -53 -113.5t-64 -113.5
q-123 -199 -259.5 -392.5t-276.5 -388.5q-38 -54 -74 -107t-68 -110q50 30 98.5 60t97.5 60q9 7 26.5 19t36.5 25t36.5 25t27.5 19q79 60 157.5 119t156.5 117q110 81 210.5 170t194.5 190q-12 -8 -33.5 -24t-40 -30t-30 -20.5t-3.5 4.5q16 29 50 59.5t70 54.5t66 37.5
t39 8.5q4 -3 2 -11t-8 -18t-14 -20t-17 -17q-86 -76 -170 -152.5t-174 -148.5q-101 -81 -205 -156.5t-208 -152.5q-4 -3 -11.5 -9t-16.5 -13t-16.5 -13t-11.5 -8q-61 -42 -115 -79q-23 -16 -46.5 -32.5t-44.5 -31.5t-39 -28t-29 -22q18 4 33.5 7t30.5 6q86 17 134 -12
t53 -101q3 -63 6.5 -125.5t5.5 -126.5q2 -88 33.5 -158t82.5 -127z" />
    <glyph glyph-name="L" unicode="L" horiz-adv-x="1277" 
d="M-273 -676q10 38 19 77t21 78q2 9 13.5 20.5t21.5 19.5q11 8 25 14.5t25 8.5q31 3 58 14.5t51.5 28.5t48.5 38t48 43q104 91 209.5 179t211.5 177q141 119 280.5 236.5t281.5 235.5q146 119 279.5 244.5t266.5 254.5q112 109 217 221t199 232q25 32 44.5 65t37.5 67
q19 35 5 54.5t-53 11.5q-38 -8 -76 -19.5t-76 -28.5q-200 -88 -381.5 -213.5t-351.5 -273.5q-98 -86 -192.5 -173t-177.5 -184q-40 -48 -76.5 -97.5t-72.5 -100.5q-11 -16 -17 -34.5t5 -22.5q7 -2 17.5 2t20.5 7.5t16.5 2.5t5.5 -12q-2 -16 -10 -28.5t-19 -21.5t-23 -14.5
t-22 -8.5q-23 -6 -43 -4t-22 17q-6 26 10 59.5t38 63.5q38 50 75 99.5t82 96.5q186 198 389 373t432 326q103 69 211 124t220 92q21 7 41 12.5t37.5 6t32.5 -4.5t25 -19q9 -14 9.5 -30t-5.5 -34t-16.5 -36.5t-22.5 -36.5q-69 -107 -155.5 -204t-179.5 -192
q-204 -210 -418.5 -405t-439.5 -385q-152 -130 -305 -254.5t-306 -252.5q-69 -58 -136.5 -119t-145.5 -130q33 3 56 4.5t44 4.5q172 24 341.5 49.5t339.5 45.5q161 19 318 28.5t311 12.5t306.5 1t304.5 -5q38 0 73 -2t72 -4q14 1 18 -3.5t-12 -8.5q-11 -2 -28.5 -6t-27.5 -4
q-105 2 -207.5 5t-208.5 1q-161 -2 -321.5 -5.5t-324.5 -10.5q-203 -8 -410 -35t-419 -62q-52 -9 -103 -19t-103 -19q-59 -10 -108 -62q-61 -66 -125 -131q-12 -12 -25 -22.5t-27 -21.5t-18.5 -10t-2.5 16zM-197 -577q0 -6 7.5 -2.5t18 14.5t22.5 28t20 37q-23 -9 -35 -14.5
t-18.5 -13t-9 -18.5t-5.5 -31z" />
    <glyph glyph-name="M" unicode="M" horiz-adv-x="1822" 
d="M2218 1492q-28 -23 -51.5 -43.5t-44.5 -41.5q-112 -109 -210 -222t-195 -230q-123 -149 -240.5 -299t-230.5 -305q-58 -79 -105.5 -155t-88.5 -152t-76.5 -153t-69.5 -158q-4 -8 -7 -20.5t-11 -25.5q-3 -5 -8.5 -13t-12 -16.5t-14 -15.5t-14.5 -9q-23 -11 -32 -6t-13 13
q-3 15 3 35t16.5 42t22.5 43t22 37q79 130 143.5 260.5t123 261t115.5 261t121 260.5q8 14 14 29t17 39l-27 -27t-18 -20q-154 -190 -305.5 -378t-305.5 -378q-101 -124 -192 -248t-169 -255q-23 -36 -37 -78t-28 -73q-16 -32 -36.5 -49.5t-40.5 -12.5q-18 3 -17 24.5
t19 49.5q52 81 103.5 160.5t104.5 160.5q72 115 132.5 229t115.5 230q72 153 145.5 305t140.5 304q41 96 71 190.5t58 188.5q29 99 -14.5 116.5t-149.5 -45.5q-104 -63 -190.5 -142.5t-164.5 -167.5q-157 -178 -257 -361t-146 -373q-9 -41 -13.5 -80.5t-5.5 -77.5
q0 -29 8.5 -49t24.5 -33.5t38.5 -21.5t49.5 -12q22 0 30.5 -7.5t7.5 -16.5q-1 -5 -2 -9t-4 -8.5t-8.5 -10.5t-14.5 -15q-19 -11 -34 -14.5t-27.5 -1t-23 8.5t-19.5 13q-67 50 -74 142q-4 72 13 147.5t44 154.5q46 139 122.5 274t180.5 266q98 126 214 236.5t258 198.5
q14 9 28.5 16.5t29.5 15.5q77 36 118 21.5t38 -80.5q-3 -74 -28.5 -152t-52.5 -156q-38 -110 -86 -219.5t-100.5 -219t-106.5 -219t-105 -219.5q-7 -15 -15 -31.5t-19 -42.5q20 22 34.5 36t25.5 28q98 122 195 243t196 243q78 97 154.5 192t154.5 192q8 10 15 19.5t16 17.5
q8 6 18.5 10.5t15.5 3.5q5 -2 8 -9t2 -13q-4 -15 -10 -30t-13 -30q-71 -155 -141 -308.5t-141 -308.5l-6 -16t-2 -16q44 59 85.5 118.5t89.5 116.5q91 111 180 222t180.5 221.5t186.5 218.5t198 212q24 26 50 49.5t54 46.5q31 26 49 27t29 -22q9 -20 15 -42t2 -47
q-8 -50 -18 -100.5t-30 -101.5q-29 -78 -61.5 -157t-72.5 -157q-97 -184 -196.5 -366t-200.5 -366q-34 -61 -64 -113.5t-59 -103t-58 -103t-62 -113.5q-20 -36 -34.5 -62t-25.5 -47t-21 -41t-21 -44q-5 -11 -11.5 -29t-14 -35t-15.5 -30t-15 -14q-18 0 -18 19t8 50
q8 30 27 68.5t35 68.5q25 51 55.5 100t59.5 99q95 168 188 333t190 332q95 165 174 327.5t145 327.5q21 51 36.5 102.5t29.5 102.5q8 31 6.5 60.5t-29.5 53.5z" />
    <glyph glyph-name="N" unicode="N" horiz-adv-x="1055" 
d="M160 -365q-8 -3 -10.5 5t-1 20t4.5 25.5t6 21.5q14 42 30.5 83.5t36.5 83.5q42 90 87 178t89 177q84 175 167 347.5t165 347.5q44 93 71.5 183.5t42.5 180.5q5 23 6 50t-1 43q-2 10 -18 2t-36.5 -25.5t-42 -38t-33.5 -34.5q-108 -121 -191 -248t-137 -260
q-32 -80 -25 -135t67 -94q3 -2 7 -10.5t-8 -27.5q-11 -10 -24.5 -12t-27 1.5t-25 12.5t-17.5 21q-10 22 -15.5 47t-5.5 52q0 50 15.5 102t44.5 107q68 131 152 255t196 242l38 38t40 36q32 26 57.5 27t33.5 -25q8 -20 10 -44.5t-4 -49.5q-20 -79 -42.5 -158t-51.5 -159
q-54 -149 -127 -297t-149 -298q-57 -112 -113 -223.5t-113 -223.5q-11 -22 -19.5 -45t-19.5 -53q53 82 101 162.5t94 160t91 158.5t91 157q63 106 130 210t136 210q32 48 64.5 94.5t70.5 91.5q39 45 81.5 87t86.5 83q21 20 45.5 35.5t50.5 29.5q82 45 118.5 29.5t22.5 -90.5
q-8 -44 -24 -88t-36 -88t-42.5 -88.5t-44.5 -88.5q-45 -91 -88.5 -180.5t-87.5 -180.5q-107 -221 -188.5 -440.5t-148.5 -438.5q-9 -28 -14 -55.5t-8 -54.5l-2.5 -17.5t-5 -21t-9 -19.5t-15.5 -12t-21 -2.5t-21 4.5t-16 10t-5 12q-10 19 39 125q93 284 213 563t266 566
q48 95 92 190t88 191q14 31 21 62.5t12 61.5q5 29 -10 36.5t-48 -5.5q-19 -7 -37 -17.5t-35 -21.5q-73 -49 -130.5 -110t-108.5 -127q-113 -149 -211 -301t-186 -308q-83 -145 -167.5 -288.5t-166.5 -288.5q-21 -37 -39 -73.5t-36 -73.5q-13 -29 -29 -50.5t-42 -27.5z" />
    <glyph glyph-name="O" unicode="O" horiz-adv-x="1166" 
d="M941 229q51 -1 102.5 6.5t103 19t102.5 23.5t101 21q12 2 9 -1.5t-12 -9t-20 -11.5t-15 -7q-97 -34 -187.5 -58.5t-181.5 -28.5q-26 -1 -46 -11t-40 -33q-81 -90 -172 -167.5t-194 -145.5q-79 -53 -159.5 -86t-159.5 -29q-91 5 -126 66q-32 58 -34 126.5t21 149.5
q28 93 74 184.5t100 182.5q57 97 120.5 190.5t125.5 189.5q19 29 36 59.5t30 59.5q44 101 92.5 200.5t116.5 199.5q53 78 114 149t139 137q67 58 141.5 95.5t147 54t139 11t118.5 -32.5q149 -79 109 -274q-28 -132 -84.5 -264.5t-135.5 -266.5q-56 -94 -113 -185.5
t-117 -183.5q-41 -62 -86.5 -122.5t-90.5 -121.5q-14 -20 -30 -39.5t-38 -46.5zM605 1015q46 57 90.5 114t94.5 111q42 45 87.5 87.5t95.5 79.5q24 18 48 23.5t43.5 1t31.5 -19t12 -36.5q1 -8 -4 -22t-11 -25q-13 -12 -25 -17t-22 0q-4 2 -7.5 6t-2.5 18q2 32 -25.5 31
t-72.5 -34q-13 -10 -42 -34.5t-56 -54.5q-57 -67 -109.5 -135t-107.5 -136q-51 -62 -79.5 -122.5t-45.5 -126.5q-30 -116 -15.5 -202.5t62.5 -146.5t126 -95.5t176 -49.5q26 -5 47 6t43 39q63 88 130 175.5t127 177.5q91 133 168 266.5t138 270.5q38 83 64.5 163.5
t37.5 159.5q14 99 -28 156t-128 76q-98 20 -204.5 -6.5t-217.5 -115.5q-42 -34 -80.5 -72t-74.5 -78q-93 -103 -154.5 -211.5t-109.5 -221.5zM460 741q-14 -18 -20.5 -25.5t-10.5 -13.5q-63 -105 -126 -208t-120 -208q-33 -60 -57 -120t-47 -120q-24 -66 -21 -121.5
t24 -104.5q18 -49 76 -58q46 -7 95 -0.5t105 31.5q87 38 164 92.5t150 118.5q45 40 89.5 81t82.5 95q-114 18 -199 59t-135.5 108.5t-64.5 165t15 228.5z" />
    <glyph glyph-name="P" unicode="P" horiz-adv-x="746" 
d="M336 -241q-9 12 -8.5 25.5t5.5 26t12.5 24.5t12.5 21q96 165 191 328.5t191 328.5q2 5 3.5 10l4.5 15q-28 -7 -54.5 -12.5t-52.5 -11.5q-10 -2 -18.5 -4.5t-16.5 -2.5t-17.5 -1.5t-17 -1t-11.5 5t-2 15.5q4 20 21 27.5t33 12.5q35 12 70 24.5t69 21.5q36 9 60.5 30.5
t41.5 52.5q66 116 132 231.5t132 232.5q5 11 8 21.5t11 18.5q8 9 18 17t24 13q10 2 15 0t6.5 -6.5t1.5 -10v-9.5q-4 -11 -13.5 -25.5t-17.5 -26.5q-63 -108 -126.5 -215t-128.5 -215l-15 -27q-18 -35 -11 -45t44 3q126 45 249 98.5t245 126.5q66 38 125.5 80.5t114.5 95.5
l6 6t7 6q97 99 94.5 160.5t-89.5 93.5q-48 17 -105 19.5t-119 -2.5q-180 -17 -360 -75.5t-366 -167.5q-85 -50 -159 -112.5t-136 -139.5q-20 -25 -32.5 -46.5t-19.5 -42t-9.5 -41.5t-0.5 -45q-1 -5 -2 -18t-9 -21q-9 -12 -25 -15q-16 0 -24.5 5.5t-11 14.5t-1 20.5t4.5 22.5
q11 35 25.5 70t36.5 69q61 95 147.5 168.5t185.5 133.5q159 96 317 156t318 89q100 17 193 23t173 -18q25 -7 47.5 -17t39.5 -25t26 -37.5t7 -53.5q-2 -28 -12.5 -55t-32.5 -56q-57 -70 -124.5 -127t-143.5 -107q-143 -93 -289 -159.5t-296 -120.5q-17 -6 -33 -12l-32 -12
q-20 -7 -35 -17.5t-28 -30.5q-23 -40 -48 -79.5t-48 -78.5q-79 -139 -157 -276t-157 -275q-3 -6 -9.5 -19.5t-14.5 -25.5t-16 -19.5t-14 -2.5z" />
    <glyph glyph-name="Q" unicode="Q" horiz-adv-x="943" 
d="M1435 -444q70 4 103.5 1.5t44.5 -7.5q13 -6 7 -15q-124 -22 -237 -19t-220 19q-150 23 -275.5 75.5t-231.5 131.5q-57 43 -99 91q-67 -43 -128 -77q-39 -21 -73.5 -29t-65.5 -7t-59 9.5t-53 21.5q-46 24 -69.5 66t-28.5 97q-7 81 13 168t55 179q38 95 89.5 187t109.5 186
q23 36 42 72.5t34 73.5q59 145 138 284t195 275q34 40 72.5 78t79.5 73q46 39 93.5 64t93 35.5t87 6t76.5 -24.5q107 -62 122 -191q10 -85 -2.5 -174.5t-41.5 -185.5q-46 -151 -115 -299.5t-155 -298.5q-15 -27 -32 -53t-34 -53q-5 -7 -12.5 -18.5t-14 -22.5t-10 -18.5
t1.5 -6.5q19 3 45 10.5t52.5 15.5t50.5 15t41 10q11 -2 -5 -10.5t-41 -19.5q-28 -10 -58 -25.5t-57 -21.5q-35 -8 -60 -24.5t-48 -48.5q-54 -73 -116 -141t-139 -125q-17 -12 -30 -22q152 -160 367.5 -236t497.5 -71zM849 1417q-129 -124 -216.5 -259t-145.5 -277
q17 16 31 32t28 33q67 81 138.5 157t153.5 146q29 24 59 46t61 40q23 13 47.5 23t47.5 14t42 2t31 -12q16 -13 28.5 -25.5t19 -27.5t6.5 -34.5t-9 -46.5q-6 -19 -21.5 -40t-47.5 -26q-19 0 -20.5 14.5t3.5 34t11.5 39t3.5 29.5q-8 42 -42 45.5t-89 -28.5q-32 -20 -64.5 -44
t-61.5 -50q-97 -82 -177.5 -173.5t-155.5 -187.5q-32 -41 -62.5 -83t-43.5 -87q-18 -67 -21 -128.5t17 -114.5q42 -110 137 -160t241 -43q33 1 53.5 4.5t36 13.5t29.5 28t34 48q184 282 293 566q22 60 41 120t31 118t15.5 114t-4.5 109q-10 70 -41.5 122.5t-99.5 76.5
q-20 6 -43 6.5t-47 -2.5q-63 -10 -119.5 -46.5t-107.5 -85.5zM111 -109q12 -50 48.5 -81t89 -38t119 13t138.5 72q-17 20 -31 40.5t-28 42.5q-19 30 -22.5 55.5t4.5 44.5t24.5 31t37.5 17q22 7 26.5 0t1 -20.5t-10.5 -28t-8 -22.5q-5 -27 3 -57.5t28 -54.5q5 -5 8.5 -9
t7.5 -9q69 54 129 112t113 125q11 14 20.5 29.5t24.5 36.5q-251 -26 -376.5 67t-127.5 313q-46 -65 -85.5 -138t-69.5 -146.5t-49.5 -143.5t-23.5 -128q-6 -66 9 -123z" />
    <glyph glyph-name="R" unicode="R" horiz-adv-x="1212" 
d="M1074 1431q-87 -41 -171 -83.5t-160.5 -93.5t-142.5 -114.5t-116 -146.5q-18 -31 -29 -55.5t-10.5 -45t14 -38.5t43.5 -36q9 -5 9.5 -14.5t-4 -19.5t-13.5 -18.5t-20 -10.5q-18 -3 -30 -1t-19.5 8t-11.5 14.5t-7 18.5q-12 41 -2 86.5t39 96.5q51 87 121 160.5t161 132.5
q71 46 144 86.5t147 79.5q39 20 69 43t44 61q3 6 11 12q3 3 7 5l8 4q14 1 18 -4t4 -13t-1 -17t3 -15q65 18 129 37t129 33q108 25 205.5 32.5t183.5 -4.5t159 -45.5t132 -88.5q41 -38 57.5 -84t7 -98.5t-46.5 -111.5t-103 -122q-129 -122 -271 -215.5t-296 -163.5
q-109 -49 -216 -90t-215 -84q-17 -7 -33.5 -13t-41.5 -15q36 -39 56.5 -85.5t33.5 -97t23.5 -102.5t26.5 -100q27 -83 69.5 -150.5t104 -116t144 -76t190.5 -29.5h28.5t38 0.5t38 0t29 -2t10 -4t-17.5 -7.5q-14 -3 -27 -7t-26 -6q-196 -23 -332.5 30t-221.5 175
q-23 34 -40 71.5t-30 78t-23 82.5t-19 84q-12 55 -30.5 104.5t-47.5 94.5q-20 32 -54.5 38t-84.5 -8q-28 -8 -43 -22t-22 -38q-12 -43 -24.5 -85.5t-26.5 -86.5q-17 -57 -36 -112.5t-35 -112.5q-3 -11 -6 -20t-4 -17.5t0 -17.5t5 -21q7 -13 4 -27t-8 -22q-9 -15 -16.5 -22
t-13 -10t-10 -3t-7.5 -1q-9 -2 -14.5 1.5t-9 8.5t-4.5 10.5t-1 7.5q2 22 10 45.5t15 46.5q28 88 57 176t56 176q4 15 10 31t10.5 31t6 28.5t-2.5 23.5q-4 8 -15 11.5t-25 5t-29 2.5t-27 4q-9 2 -22.5 5.5t-24.5 8t-17.5 9.5t-2.5 10q19 28 44 45.5t53.5 29t59.5 18.5t61 13
q6 19 12.5 37t12.5 36q19 58 40 116.5t34 115.5q13 61 38.5 122.5t55.5 123t61 123t55 122.5q4 11 8.5 23t14.5 35zM1759 1577q-130 7 -263.5 -14t-278.5 -72q-40 -14 -66.5 -36.5t-40.5 -59.5q-5 -12 -11 -24t-12 -23q-44 -100 -89 -197.5t-83 -196.5q-35 -84 -61.5 -166.5
t-55.5 -166.5q-19 -51 26 -64q23 -5 40.5 -16.5t38.5 -17.5q15 -5 33 -6t35 4q90 29 179.5 61t178.5 70t177 82.5t175 98.5q86 53 166 110.5t152 129.5q207 209 93 356q-7 8 -13 15t-14 12q-62 51 -138.5 80.5t-167.5 40.5zM611 485q12 -1 27 -4t29 -5t24.5 -2.5t14.5 2.5
q7 22 3.5 33t-13.5 13.5t-23.5 -1.5t-26.5 -10.5t-23 -14t-12 -11.5zM775 517q-1 -17 -0.5 -25.5t6 -10.5t18 2t35.5 13q7 1 -2 6.5t-22.5 11t-25 7.5t-9.5 -4z" />
    <glyph glyph-name="S" unicode="S" horiz-adv-x="706" 
d="M544 81q17 11 44.5 28.5t59.5 39t66.5 44t66.5 43.5t59.5 38.5t44.5 28.5q13 7 11.5 4.5t-11.5 -11t-26 -21t-33 -25.5t-32.5 -25t-24.5 -19q-11 -9 -25.5 -20t-25.5 -19q-33 -26 -66.5 -51t-68.5 -48q-24 -17 -37.5 -35.5t-19.5 -43.5q-23 -104 -72 -196.5t-119.5 -176
t-160 -159t-193.5 -143.5q-44 -29 -94 -49t-99 -37q-51 -17 -66.5 0.5t4.5 65.5q19 48 50 93q97 143 221 264t267 232q38 29 77 57.5t80 54.5q35 23 49 47t12 53q-9 79 -15.5 158.5t-17.5 157.5q-7 52 -15 104.5t-13 106t-6.5 108.5t4.5 113q15 139 91 283q38 70 90.5 134
t121.5 118q183 143 372.5 238t388.5 144q40 10 77.5 11t72.5 -1q55 -4 71 -38t-13 -91q-46 -91 -101 -179.5t-124 -174.5q-15 -20 -32 -35t-33.5 -24t-31.5 -11t-25 3q-11 6 -11 13t5.5 15.5t14.5 17t16 16.5q75 73 124 129t81 100.5t51 79t34 65.5q8 16 7.5 26.5t-7 18
t-17.5 13t-25 10.5q-47 17 -102 8.5t-114 -27.5q-146 -47 -285 -116.5t-276 -163.5q-108 -75 -186.5 -164t-125.5 -196q-35 -81 -50 -156t-12 -147q2 -63 8.5 -124.5t14.5 -122.5q13 -108 27 -215t28 -219zM462 -21q-101 -69 -192.5 -139t-175.5 -149q-81 -78 -155 -158.5
t-128 -172.5q-13 -20 -20.5 -41t-17.5 -42q44 2 97.5 23.5t111 57.5t115.5 83.5t111.5 102t100.5 113t81.5 115.5t53.5 110t18 97z" />
    <glyph glyph-name="T" unicode="T" horiz-adv-x="837" 
d="M491 1017q19 4 38 8.5t37 6.5q124 14 246 26t247 25q13 1 24 2.5t21 6t19 13t20 24.5q6 11 7.5 22t3 21t5.5 18.5t13 14.5q15 11 27 11t20 -6t11 -17t1 -21q-20 -50 -8 -66t59 -11q199 7 392 5.5t380 -18.5q25 -2 56.5 -5.5t64.5 -1.5q17 -1 21 -14.5t-3 -29t-24.5 -27
t-43.5 -7.5q-84 25 -187.5 38.5t-217 19t-231.5 5.5t-231 -2q-32 -1 -50 -3t-31 -10.5t-23.5 -25.5t-26.5 -48q-96 -185 -189.5 -367t-173.5 -367q-24 -57 -55 -113.5t-60 -113.5t-58 -113.5t-56 -113.5q-12 -24 -21.5 -41t-19 -29t-20 -20.5t-25.5 -15.5q-13 -5 -19.5 0.5
t-9 15.5t-0.5 22t6 20q38 73 80 146.5t84.5 146.5t84 146t77.5 147q23 48 38 95.5t32 95.5q4 10 6.5 20t7.5 19q38 64 42.5 130t-17 123t-66.5 98.5t-106 56.5q-40 9 -82.5 13t-86.5 8q-5 0 -16 1.5t-22.5 4t-20.5 5.5t-10.5 7t7 8.5t33.5 10.5zM1094 1047
q-94 -1 -183.5 -13t-184.5 -32q85 -38 132 -104.5t61 -166.5q48 85 89 160.5t86 155.5z" />
    <glyph glyph-name="U" unicode="U" horiz-adv-x="1489" 
d="M567 -269q23 23 40.5 39t31.5 33q161 180 315.5 360t300.5 367q126 161 235.5 325t200.5 335q32 63 69 126.5t74 126.5q8 12 18 28t18 19q12 6 19 4t9.5 -8t2 -15t-2.5 -16q-18 -69 -33.5 -138t-41.5 -138q-53 -134 -111.5 -267.5t-115.5 -268.5q-54 -123 -106.5 -244.5
t-98.5 -243.5q-36 -97 -59.5 -185.5t-26.5 -179.5q0 -12 -11.5 -33t-25.5 -38q-17 -11 -27 -9t-15 10t-6.5 19t0.5 19q14 62 33.5 127t39.5 128q28 93 64 186.5t76.5 187t84 187.5t85.5 188q57 130 112.5 258t91.5 256q2 6 5 19t5 24t1 15t-8 -6q-23 -38 -45.5 -76.5
t-44.5 -77.5q-148 -267 -335.5 -522t-399.5 -502q-81 -93 -160.5 -185t-160.5 -186q-16 -18 -32.5 -36.5t-35.5 -35.5q-34 -30 -59 -30.5t-33 29.5q-4 14 -4 29t1 31q8 72 29 145.5t51 149.5q31 80 69.5 159.5t81 158.5t88.5 157.5t91 157.5q89 152 178.5 301.5t179.5 301.5
q20 37 38 73.5t33 73.5q10 24 14 44t-0.5 33t-18.5 16.5t-40 -5.5q-29 -10 -59 -25.5t-61 -33t-61 -35t-57 -32.5q-109 -57 -207.5 -129t-192.5 -153q-75 -65 -133.5 -136t-103.5 -149q-28 -48 -44 -93.5t-23.5 -89t-7.5 -85.5t5 -83q4 -31 12.5 -46.5t23 -24.5t33.5 -17
t44 -24q5 -20 -4 -34t-24.5 -21t-32.5 -7.5t-28 7.5q-17 14 -32 29.5t-21 35.5q-23 73 -22.5 156t28.5 171.5t85.5 179.5t150.5 181q156 150 326 266.5t362 192.5q56 22 107 25q39 2 49.5 -15.5t-4.5 -55.5q-17 -44 -37.5 -87.5t-46.5 -86.5q-118 -201 -236.5 -400.5
t-236.5 -401.5q-46 -80 -88 -160t-78 -160t-65 -160t-48 -160q-8 -35 -9.5 -68.5t9.5 -71.5z" />
    <glyph glyph-name="V" unicode="V" horiz-adv-x="1351" 
d="M3160 2325q-47 -41 -80 -68.5l-63 -52.5t-63 -53t-79 -68q-147 -128 -281 -261.5t-270 -268.5q-70 -70 -136 -144.5t-129 -151t-125 -153.5t-124 -151q-78 -93 -155 -183t-151 -181t-144 -184t-134 -190q-93 -140 -181.5 -279t-176.5 -280q-19 -31 -34 -59t-26.5 -55.5
t-21 -56t-16.5 -60.5q0 -4 -1.5 -12t-4 -17.5t-5 -17.5t-5.5 -12q-12 -17 -23.5 -26t-17.5 -9q-19 -6 -28.5 -0.5t-11.5 13.5q-1 4 1.5 17t6 28t7.5 28t5 19q15 62 33.5 120.5t40.5 116.5t47 117.5t53 123.5q84 192 168 381t157 381q51 135 94 268.5t66 266.5q14 76 27 151
t9 146q-2 49 -14 77t-37 36t-65.5 -4t-99.5 -42q-32 -17 -64.5 -36t-62.5 -42q-174 -128 -317 -275t-256 -318q-41 -61 -73.5 -122t-49.5 -124q-16 -57 -13.5 -104.5t26.5 -87.5q15 -26 31.5 -47.5t36 -39.5t45 -31t58.5 -20q12 -3 23 -4t24.5 0t30.5 4t41 9q26 11 48 18
t33 4q5 -1 10.5 -1.5t9 -2.5t5 -6t-2.5 -11q-3 -6 -13 -13t-22 -14t-23.5 -12t-15.5 -6q-26 -7 -54.5 -13.5t-49.5 -2.5q-117 17 -190 77.5t-96 166.5q-9 38 -3 79t21.5 84t39.5 86.5t52 87.5q232 369 610 654q100 76 213 123q89 38 141.5 24.5t66.5 -82.5q14 -65 8 -137
t-22 -147q-52 -244 -139.5 -488.5t-198.5 -494.5q-63 -140 -120 -277.5t-116 -277.5q-11 -26 -18.5 -53t-7.5 -55q14 23 29 45.5t30 45.5q66 103 132 203.5t134 202.5q51 78 104 154t107 152q45 62 91 122t95 120q96 117 189.5 232.5t193.5 230.5q91 103 183.5 204.5
t190.5 199.5q143 143 288 281.5t294 275.5q86 79 177.5 150.5t182.5 145.5q10 6 19 9.5t4.5 -3.5t-27 -28.5t-75.5 -64.5z" />
    <glyph glyph-name="W" unicode="W" horiz-adv-x="1476" 
d="M1663 835q-39 -115 -85.5 -229.5t-108.5 -231.5q-43 -80 -88 -160t-95 -158t-108 -155t-126 -151q-14 -14 -26.5 -27t-26.5 -25q-33 -29 -65 -43.5t-59 -15t-46 13t-26 42.5q-8 31 -7 67t9 73q23 87 51 174.5t56 175.5q1 5 3 11t4 18q2 7 -3 3.5t-13 -11.5t-16 -17.5
t-12 -13.5q-102 -116 -202 -231t-202 -231q-16 -18 -32 -37t-34 -35q-38 -33 -63 -30t-21 41q2 20 8.5 42t17.5 43q49 94 96.5 187t106.5 185q106 168 218 331.5t224 329.5q48 71 85.5 142t64.5 143q34 88 7.5 114.5t-122.5 -1.5q-147 -42 -281 -118t-255 -194
q-121 -119 -168.5 -238t-18.5 -234q3 -10 15 -22.5t26 -26t27.5 -26.5t19.5 -24t1 -19.5t-28 -12.5q-23 -3 -37.5 -1t-23.5 9.5t-14 20t-10 31.5q-5 18 -10 33.5t-10 30t-8.5 30.5t-4.5 36q-5 106 48 210t157 207q105 104 222.5 179.5t248.5 126.5q36 14 73 27.5t73 24.5
q94 27 129.5 -4.5t6.5 -118.5q-27 -81 -69 -160.5t-97 -158.5q-98 -145 -196.5 -287t-190.5 -288q-68 -107 -125.5 -215t-117.5 -217q-10 -17 -15.5 -37t-15.5 -50q23 19 35.5 28.5t20.5 19.5q66 74 131 143t129 138t126 140t122 148q11 14 15.5 22.5t6.5 15t3 12t6 13.5
t24.5 16.5t38.5 8.5q14 0 20.5 -5t9 -11.5t1.5 -12.5t-2 -9q-5 -14 -14 -25.5t-19.5 -24.5t-22.5 -30t-22 -41q-47 -108 -82.5 -213.5t-44.5 -208.5q-2 -16 -3 -31.5t2 -29.5q11 -48 48 -46.5t90 52.5q71 69 128 143t108 152q97 148 178 295.5t140 296.5q26 66 51 131.5
t45.5 131t36 130t22.5 128.5q8 76 12.5 149.5t-0.5 145.5q-2 17 -8.5 32t-13.5 30q-14 37 -33 68q-12 17 -26 32.5t-27 32.5q-2 3 -11 8.5t-20 12.5l-22 14t-17.5 12.5t-6.5 8.5t11 2q12 -5 27.5 -8.5t29.5 -10.5q29 -12 53 -34q54 -47 77 -112t28 -143q6 -134 -19.5 -274.5
t-76.5 -289.5z" />
    <glyph glyph-name="X" unicode="X" horiz-adv-x="1076" 
d="M918 392q-316 -210 -603.5 -439.5t-540.5 -497.5q-15 -15 -21.5 -19.5t-6.5 -2t4.5 10.5t12.5 19q23 28 44 55t46 53q114 121 237 231.5t257 213.5q128 96 255 188.5t256 185.5q40 28 61 55t29 68q20 90 47 180.5t53 181.5q9 33 16 65.5t12 64.5q2 8 2.5 19t-7.5 16
q-5 2 -17.5 0t-29 -6.5t-34 -10.5t-31.5 -12q-64 -27 -126 -57t-120.5 -66t-114 -79t-105.5 -96q-38 -41 -65.5 -82.5t-50.5 -103.5q-2 -6 -7 -16.5t-11.5 -21.5t-13 -21t-12.5 -15q-8 -7 -15 -7.5t-12.5 3t-10.5 9.5t-8 12q-5 5 -0.5 17.5t11.5 22.5q15 21 34 49t36 49
q63 85 134.5 154.5t151 125.5t167 100.5t182.5 79.5q47 18 76 22t43 -6t14 -36t-11 -68q-23 -89 -50 -178t-52 -179q-9 -31 -15.5 -62.5t-17.5 -72.5q29 19 49 32t38 26q112 77 223 152.5t223 152.5q26 18 50.5 37.5t47.5 39.5q17 15 33 23.5t29.5 9.5t22.5 -5.5t12 -19.5
q0 -7 -5.5 -14.5t-13.5 -13.5t-17.5 -11t-16.5 -8q-38 -16 -74.5 -37t-71.5 -44.5t-70 -48.5t-71 -48q-88 -57 -172 -116t-172 -116q-30 -20 -44.5 -41t-19.5 -49q-13 -91 -9.5 -173.5t35.5 -154.5q19 -44 48.5 -76t73 -48t103 -13.5t138.5 28.5q9 2 28 9t40 14
q19 6 12.5 0.5t-22 -15.5t-33.5 -20t-22 -12q-56 -24 -116.5 -35t-116 -4.5t-101 34t-70.5 81.5q-32 66 -45 140t-3 160q3 20 4 39.5t4 48.5z" />
    <glyph glyph-name="Y" unicode="Y" horiz-adv-x="1501" 
d="M1515 1256q21 25 41 23.5t26 -17.5q7 -17 11 -37t-1 -42q-23 -120 -46.5 -239.5t-52.5 -241.5q-29 -123 -65.5 -246t-69.5 -247q-2 -8 -3.5 -16.5t-3.5 -20.5q29 14 68 32t80.5 36t80.5 33.5t66.5 24.5t40 10t1.5 -11q-9 -5 -22.5 -11.5t-28.5 -14t-28.5 -14t-22.5 -10.5
q-49 -26 -97.5 -51t-98.5 -49q-34 -17 -57 -38.5t-40 -53.5q-35 -66 -73 -132.5t-83 -131.5q-42 -60 -89 -118t-97 -115q-26 -28 -49.5 -42.5t-42.5 -15.5t-31.5 11.5t-16.5 38.5q-8 55 -1.5 108t30.5 104t68.5 100.5t112.5 98.5q45 32 90 61t91 56q38 23 62.5 49t35.5 61
q31 101 61.5 201.5t58.5 201.5q22 82 38.5 163t33.5 162q-83 -162 -184.5 -318t-208.5 -313q-26 -39 -55 -77.5t-60 -76.5q-33 -42 -73 -78t-88 -65q-54 -33 -91.5 -33t-51.5 40q-13 33 -17.5 71t-3.5 78q0 55 9 112t25.5 115t39 117.5t48.5 119.5q60 141 124 281t124 281
q20 48 35.5 96.5t23.5 95.5q17 97 -29.5 115.5t-155.5 -36.5q-69 -35 -134 -87.5t-119 -114t-93.5 -127.5t-55.5 -127q-6 -20 -8 -37t0.5 -36t9 -43.5t17.5 -58.5q4 -13 -4.5 -22t-21.5 -13.5t-27 -3.5t-21 9q-6 7 -7 18.5t-0.5 24t1.5 25.5t0 22q-12 59 11 123t62 130
q78 131 189.5 226t254.5 158q92 40 140 17.5t46 -99.5q-1 -63 -20 -128.5t-50 -133.5q-58 -131 -117.5 -261t-113.5 -261q-35 -84 -63.5 -167.5t-47.5 -164.5q-14 -58 -14.5 -113.5t-1.5 -110.5q1 -12 4 -22.5t8 -20.5q12 -26 31 -28t57 19q42 23 76 54t60 67
q69 96 136.5 190.5t133.5 191.5q84 122 151 244.5t121 247.5q20 48 31 92.5t-3 83.5q-2 5 -6 10t-6 11t-1.5 13.5t7.5 17.5zM1226 43q-66 -39 -130 -79t-121 -94q-54 -51 -80.5 -104.5t-31.5 -107.5l-4 -30t0 -28.5t9.5 -25.5t24.5 -21q114 116 195 237.5t138 252.5z" />
    <glyph glyph-name="Z" unicode="Z" horiz-adv-x="1726" 
d="M1774 1102q-33 1 -60 2.5t-53 -0.5q-232 -8 -469.5 -69t-485.5 -177q-91 -43 -176.5 -97.5t-156.5 -131.5q-99 -107 -137.5 -211t-27.5 -206q1 -15 12.5 -23t29.5 -8q21 0 37.5 -4t22.5 -12t-2 -20t-36 -27q-25 -6 -46 -4t-26 7q-16 10 -26 27t-13 36q-11 64 1 135
t46 143t90 141.5t134 131.5q103 82 212 137t222 100q190 76 373 118t362 58q34 3 77.5 6t83.5 4.5t69 -0.5t34 -8q0 -25 -16.5 -43.5t-41.5 -38.5q-57 -47 -117 -88.5t-121.5 -79.5t-123.5 -73.5t-125 -71.5q-20 -11 -39.5 -23t-44.5 -28q72 5 137.5 10t129.5 7
q56 2 100 -13t79 -41q108 -77 42 -238q-17 -42 -36.5 -83.5t-40.5 -89.5q66 14 129.5 31t125.5 24q21 2 17 -2.5t-20 -11.5q-17 -5 -34 -11t-34 -11q-30 -11 -77 -31t-96 -35q-18 -6 -31.5 -12t-26 -13t-25 -17t-27.5 -25q-198 -222 -463 -374q-88 -51 -174 -93t-174 -72
q-47 -16 -94.5 -26t-89.5 -9q-67 2 -67.5 36t59.5 93q61 59 128.5 102.5t136.5 84.5q137 80 275 143.5t279 113.5q31 11 62 24t63 22q38 11 68 34t47 58q25 48 49 96.5t39 96.5q19 58 0 97.5t-62 64.5q-54 33 -124 39.5t-148 -4.5q-60 -8 -121.5 -22t-122.5 -27
q-5 -1 -13 -5t-16.5 -8t-16.5 -7.5t-12 -3.5q-8 0 -14.5 1.5t-10 5.5t-3 11t7.5 16q9 11 22.5 20.5t24.5 14.5q115 66 229 130t229 131q48 28 93 61.5t91 66.5q6 4 17.5 11.5t21 15.5t14 14t-3.5 7zM542 -365q19 -14 40.5 -18t44 -2t45 9t44.5 15q75 29 150 61.5t149 70.5
q125 64 235 147t210 185q8 9 16.5 20.5t19.5 27.5q-16 -4 -25.5 -6t-18.5 -5q-121 -43 -240.5 -93t-240.5 -112q-85 -43 -165.5 -91.5t-157.5 -108.5q-13 -11 -32.5 -25.5t-37 -29.5t-28.5 -27t-8 -18z" />
    <glyph glyph-name="one" unicode="1" horiz-adv-x="220" 
d="M159 -17q-26 -11 -36 -3t-8 28q3 17 8.5 35.5t14.5 36.5q29 63 60 126.5t62 126.5q9 19 17.5 37.5t17.5 39.5q-7 0 -19 -3.5t-23 -6t-17.5 -1.5t-1.5 9q13 19 22.5 35t23.5 29q39 39 68.5 80t47.5 86q3 8 6.5 17t11.5 16q8 8 18 16.5t18 8.5q6 1 12.5 -6.5t4.5 -14.5
q-8 -23 -18 -46.5t-22 -46.5q-51 -106 -103.5 -210t-101.5 -210q-10 -21 -19 -50.5t-17 -56.5t-15 -47.5t-12 -24.5z" />
    <glyph glyph-name="zero" unicode="0" horiz-adv-x="449" 
d="M536 308q-38 -61 -87.5 -111.5t-114.5 -89.5q-41 -24 -73.5 -32t-54.5 -0.5t-32 30.5t-5 59q2 10 4.5 20t0.5 18q-4 42 8 82.5t35.5 80t56 78.5t70.5 77q36 38 77 61.5t86 20.5q47 -2 66 -27t20 -66q2 -48 -14.5 -98.5t-42.5 -102.5zM392 514q17 -22 4 -47.5t-38 -51.5
q-8 -8 -14 -16t-14 -15q-50 -45 -71 -92t-29 -95q-10 -61 21 -72.5t99 30.5q54 34 95 82t66.5 98.5t34.5 97.5t-1 78q-12 42 -54.5 43t-98.5 -40z" />
    <glyph glyph-name="two" unicode="2" horiz-adv-x="714" 
d="M568 435q-24 -11 -37.5 -4.5t-16 21.5t4.5 34t23 34q16 16 34.5 30t38.5 25q54 32 109 52t109 29q56 9 74.5 -13t-4.5 -75q-11 -28 -30.5 -56t-42.5 -53q-68 -72 -150.5 -125.5t-164.5 -103.5q-12 -8 -25.5 -16t-32.5 -19q45 -8 74.5 -16t50 -15.5t35 -13.5t29 -11t32 -8
t43.5 -3q-15 -12 -33 -19.5t-35.5 -11t-33.5 -4t-28 1.5q-46 10 -93 18t-97 13q-35 5 -74.5 -5t-81.5 -33q-35 -19 -65 -36.5t-65 -31.5q-5 -2 -13 -4t-16 -2t-14 2t-7 7q1 12 6.5 24.5t19.5 26.5q25 23 49 38.5t47.5 26t47.5 16.5t49 11q57 11 110.5 38t106.5 58
q49 29 95.5 59t91.5 65q36 28 68 60.5t62 64.5q21 21 28 43t-2 39q-4 10 -12 14t-18.5 4t-22.5 -3t-24 -7q-15 -5 -32.5 -12.5t-35 -16.5t-33 -18.5t-26.5 -19.5q-22 -19 -27.5 -33t-8.5 -25t-8.5 -21t-27.5 -20z" />
    <glyph glyph-name="three" unicode="3" horiz-adv-x="555" 
d="M484 187q57 31 64 51.5t-33 40.5q-16 8 -36.5 10.5t-40.5 4.5q-21 2 -43.5 0.5t-42.5 2.5q-12 2 -23.5 10t-12.5 16q0 5 5 11t12 11.5t14.5 10.5l13.5 9q47 29 93 55t91 55q27 16 51.5 36t41.5 51q-8 5 -21 5.5t-28 -5.5t-30 -19.5t-25 -34.5q-8 -16 -17.5 -23.5
t-23.5 -13.5q-25 -8 -38.5 -5t-15.5 9q-2 5 1.5 16.5t9.5 18.5q34 39 74.5 66t86.5 38q16 3 33.5 7t32.5 4t26 -5t14 -19t-3.5 -27.5t-19 -26t-28 -24t-29.5 -21.5q-51 -39 -104.5 -75.5t-110.5 -75.5q12 -11 30 -10t35 2q38 1 65.5 -10t47.5 -31q25 -24 16 -53t-51 -59
q-27 -20 -56 -35.5t-58 -27.5q-82 -35 -161 -52.5t-156 -24.5q-9 -1 -19 -2t-17 1q-14 4 -17.5 10.5t8.5 25.5q4 6 14 15t20.5 16.5t19.5 13t12 4.5q12 1 20 -1t15.5 -5t16.5 -6t24 -4t38 1.5t58 9.5q16 3 40 11t47 17t42.5 17.5t27.5 12.5z" />
    <glyph glyph-name="four" unicode="4" horiz-adv-x="480" 
d="M476 298q-47 -8 -87 -14.5t-79 -11.5q-17 -2 -35.5 -10.5t-37.5 -16t-38.5 -10.5t-38.5 5q-2 4 2.5 9t12 10.5t15.5 10t13 7.5q112 69 207 154t186 178q17 17 29 37.5t23 40.5q12 26 20 40.5t18.5 22t27.5 10.5t48 6q5 -8 3.5 -16.5t-6 -17t-11 -17t-12.5 -17.5
q-23 -32 -44 -64.5t-38 -65.5q-53 -104 -103 -207t-101 -207q-25 -50 -51.5 -99.5t-52.5 -100.5q-6 -12 -11.5 -24.5t-22.5 -22.5q-14 0 -19.5 3.5t-6.5 9.5t2 13.5t7 15.5q35 65 69.5 129.5t68.5 129.5q11 21 21 42.5t22 47.5zM599 554q-38 -35 -67 -62t-57 -51
q-29 -26 -61 -51.5t-73 -59.5q41 6 71 9t60 11q26 5 37 17t17 23q20 37 35.5 76t37.5 88z" />
    <glyph glyph-name="five" unicode="5" horiz-adv-x="491" 
d="M292 319q29 4 50 6.5t39 4.5q29 5 57.5 10.5t55.5 6.5q26 1 44 -9.5t20 -35.5q2 -26 -15 -49.5t-41 -43.5q-86 -71 -177 -117.5t-186 -78.5q-42 -14 -57 5.5t2 58.5q16 36 41 69.5t49 58t41.5 36t18.5 4.5q-2 -9 -12.5 -25t-24 -35t-28 -39.5t-24.5 -38.5t-14 -31t4 -17
q33 0 65.5 15t64.5 32q42 23 84 47.5t84 51.5q23 15 42.5 35t16.5 43q-2 12 -9 16.5t-17.5 5t-22.5 -2t-23 -4.5q-20 -3 -40 -8.5t-40 -10.5q-12 -3 -25 -6t-25 -4q-23 0 -40.5 1t-24 8.5t-0.5 24t30 47.5q23 31 43.5 61.5t40.5 62.5q9 14 17 28t11.5 26.5t-0.5 23t-19 17.5
q-5 2 -6 12t2 19q1 6 8.5 9t16.5 5.5t18.5 5t15.5 6.5q11 8 22 18.5t26 19.5q11 5 13 -1t1 -16.5t-2.5 -21t2.5 -14.5q15 -16 42 -17.5t54 -1.5q26 -1 50.5 -0.5t49.5 -1.5h13t16.5 -0.5t11 -3.5t-3.5 -9q-19 -11 -35.5 -17t-31 -8.5t-28 -3t-26.5 -0.5q-27 -2 -52.5 0.5
t-52.5 0.5q-13 -1 -26.5 -2t-25.5 -19q-32 -49 -62.5 -99t-65.5 -110z" />
    <glyph glyph-name="six" unicode="6" horiz-adv-x="537" 
d="M202 46q-5 -6 -5 -13.5t1 -14.5t1 -14t-4 -13q-5 -5 -16 -3.5t-13 6.5q-14 11 -21.5 33t-19.5 40q-10 12 -10 33.5t5 41.5q13 55 47 106.5t88 97.5q65 57 131 111t132 109q29 24 57.5 48t57.5 48q17 14 33.5 22t33.5 -6q5 -4 0 -16.5t-16 -29t-26.5 -34t-29.5 -31
t-25.5 -22t-14.5 -5.5q-12 7 -24 6.5t-24 -6t-24 -15t-24 -19.5q-72 -57 -139.5 -114.5t-122.5 -127.5q-16 -20 -29.5 -43t-20.5 -45t-6 -41t15 -29q9 15 23.5 32.5t27.5 31.5q46 50 99.5 85.5t110.5 71.5q21 14 42.5 25.5t43.5 19.5q29 11 50.5 9t33 -14t11 -33t-15.5 -47
q-42 -72 -104.5 -123.5t-140.5 -80.5q-19 -7 -40.5 -15t-43.5 -14t-43.5 -8.5t-40.5 0.5zM234 100q39 -7 83 2t86.5 30t81 53t66.5 71q11 17 20 33t-3 28q-11 12 -30.5 11t-39.5 -15q-45 -30 -91.5 -59.5t-88.5 -62.5q-24 -19 -48 -41.5t-36 -49.5z" />
    <glyph glyph-name="seven" unicode="7" horiz-adv-x="474" 
d="M710 639q0 -6 -8 -15.5t-20 -20.5t-25 -22.5t-22 -20.5q-67 -67 -136 -133t-134 -135q-27 -28 -53.5 -56.5t-49.5 -58.5t-41 -61t-28 -65q-2 -7 -13 -16t-20 -14q-5 -2 -13 1t-12 8q-10 14 -4 31.5t21 35.5q44 54 86.5 107.5t90.5 104.5q54 59 112 115t115 113
q12 12 23.5 25t30.5 33q-27 2 -49 4t-44 3q-32 1 -57 -4t-46 -11.5t-38.5 -12t-35.5 -4.5q-8 0 -13.5 6t-6 15.5t6 23t21.5 30.5q8 7 16 7.5t16 0.5q75 0 149.5 -0.5t148.5 -1.5q8 0 17.5 -2t14.5 -10z" />
    <glyph glyph-name="eight" unicode="8" horiz-adv-x="345" 
d="M522 530q-29 -41 -59.5 -83.5t-62.5 -85.5q-26 -33 -37.5 -62.5t-6.5 -58.5q5 -21 3.5 -44.5t-6.5 -47.5q-6 -43 -29.5 -72t-71.5 -55q-74 -41 -109 1q-22 26 -23.5 61t9.5 76q16 52 42.5 103t65.5 102q16 20 24.5 39t3.5 37q-6 21 4.5 47t32.5 52t51.5 50.5t60.5 43
t60.5 29.5t51.5 11q48 0 42 -40q-2 -16 -13.5 -40t-32.5 -63zM278 342q-47 -51 -70.5 -100.5t-31.5 -100.5q-5 -37 8 -67q5 -9 18.5 -16t24.5 -3q15 5 32 19.5t28 28.5q22 31 23.5 57.5t-10.5 52.5q-19 -20 -36 -39.5t-37 -36.5q-15 -6 -13.5 7t10.5 33t22.5 42t24.5 36
q22 27 25 48t-18 39zM346 361q71 78 110 142t45 111q-42 -8 -77 -28t-70 -55q-18 -19 -29.5 -37t-0.5 -36q7 -5 20 -3t24.5 2.5t18.5 -5.5t2 -25q-32 -4 -41.5 -25t-1.5 -41z" />
    <glyph glyph-name="nine" unicode="9" horiz-adv-x="357" 
d="M118 -41q-15 -2 -20 5.5t-3 20t8.5 26.5t14.5 24q64 60 115.5 131t104.5 142q5 6 8 12t5 8q-23 11 -45 18.5t-36 21.5q-16 18 -19 39.5t4.5 45t23 48.5t35.5 49q26 33 59 62.5t65 58.5q9 8 20 14t22 11q122 54 103 -51q-7 -43 -24.5 -85.5t-49.5 -86.5
q-78 -106 -155.5 -212t-156.5 -212q-9 -12 -16 -24.5t-15 -24.5t-19.5 -22.5t-28.5 -18.5zM439 615q-69 -51 -99 -97.5t-26 -89.5q2 -23 17 -33t38 -3q15 4 27.5 15t22.5 24.5t17 27t9 22.5q1 13 9 31t17 36t15.5 34.5t5.5 27t-13 13t-40 -7.5z" />
    <glyph glyph-name="period" unicode="." horiz-adv-x="164" 
d="M167 125q-11 -16 -20 -21.5t-20 -7.5q-21 -4 -21.5 9t4.5 29q5 17 18.5 26.5t27.5 4.5q5 -2 10 -5t7.5 -7.5t1.5 -11.5t-8 -16z" />
    <glyph glyph-name="comma" unicode="," horiz-adv-x="168" 
d="M82 43q22 19 27 32t3.5 23t-4 19.5t5.5 23.5q7 12 17.5 17.5t22.5 6.5q11 2 19 -1.5t6 -14.5q-2 -13 -8.5 -29t-18.5 -31.5t-29 -27.5t-41 -18z" />
    <glyph glyph-name="c" unicode="c" horiz-adv-x="364" 
d="M334 293q-24 -12 -27.5 -5t0.5 21t8 29t-5 19q-19 7 -42 -2.5t-42 -30.5q-21 -24 -40 -49.5t-31 -51.5q-34 -68 44 -57q34 5 72 22q53 25 105 51t105 52q14 7 28 12t29 7q9 0 -2 -9t-30 -21.5t-41 -25.5t-36 -20q-59 -30 -116.5 -60.5t-115.5 -53.5q-36 -15 -62 -14.5
t-40 14t-14.5 37.5t15.5 57q44 89 129 162q31 26 63 37t60 9q24 -2 37 -17t10 -38q-4 -23 -18 -43t-43 -31z" />
    <glyph glyph-name="b" unicode="b" horiz-adv-x="465" 
d="M636 300q-47 -24 -77 -42.5t-50 -32.5t-32.5 -24.5t-23.5 -19.5q-42 -35 -89.5 -67t-100.5 -55q-33 -14 -61.5 -20.5t-50.5 9.5q-18 -19 -23.5 -37t-11 -35t-18 -32.5t-43.5 -30.5q-18 -7 -26 -4t-9.5 11.5t1.5 19.5t8 21q8 16 16 28.5t19 33.5t27 58t41 102
q9 22 18.5 43.5t18.5 41.5q-11 5 -20.5 8.5t-16.5 9.5q-2 2 4 13.5t13 16.5q39 33 68.5 68.5t54.5 72.5t47 75t46 76q55 88 116 173t122 171q14 21 33.5 40.5t38.5 37.5q23 22 47 28.5t40 -1.5q9 -5 12 -11.5t2 -14.5t-5.5 -17l-9.5 -19q-38 -69 -86 -134.5t-103 -129.5
q-57 -67 -115.5 -132.5t-117.5 -132.5q-57 -66 -90.5 -136t-63.5 -147q41 26 74 48.5t65 42.5q24 14 47.5 24.5t47.5 18.5q34 11 58 7.5t30 -34.5q0 -9 13 -8t31 6t38 11.5t34.5 10.5t19.5 2.5t-7 -12.5zM716 996q-3 7 -24 -11t-51.5 -52t-66 -79.5t-68.5 -92.5t-59.5 -91
t-37.5 -75q79 88 132 148.5t87 105t54 78.5t34 69zM442 249q-18 13 -45 10.5t-58.5 -17.5t-65 -41t-64.5 -61q57 26 114.5 53t118.5 56zM376 169q-76 0 -129 -62q-6 -10 -6 -13.5t11 1.5q31 19 61.5 37.5t62.5 36.5z" />
    <glyph glyph-name="a" unicode="a" horiz-adv-x="318" 
d="M323 310q13 -8 20.5 -30t9.5 -50t-1.5 -57t-13.5 -51q-11 -20 -22.5 5.5t-28.5 91.5q-27 -23 -53.5 -46t-53.5 -44q-11 -9 -23 -18t-24.5 -15.5t-24.5 -9.5t-24 1q-13 4 -17.5 12.5t-4 20t4.5 24.5t9 25q23 54 59.5 102.5t87.5 93.5q38 32 80 44.5t71 1.5q7 -2 15.5 -6.5
t11.5 -12.5t-1 -20t-21 -30q-12 -11 -22 -11t-20.5 4.5t-22 10t-25.5 5t-31.5 -9.5t-39.5 -33q-18 -18 -37.5 -44.5t-33.5 -51t-20 -42t3 -18.5q10 1 23.5 8.5t27 18t26.5 22t24 22.5q10 10 23.5 26t27 30.5t25 24t16.5 6.5z" />
    </font>
</defs>
</svg>
